<svg width="132" height="116" viewBox="0 0 132 116" fill="none" xmlns="http://www.w3.org/2000/svg">
<g clip-path="url(#clip0_25_56)">
<rect width="132" height="116" fill="white"/>
<path d="M20.5135 106.694V108.97H0V58.6152C0 86.9824 0.33 107.212 0.784865 106.729C1.22189 106.272 2.02459 103.521 2.56865 100.621C3.1127 97.7212 3.97784 93.5646 4.48622 91.394C4.99459 89.2233 5.64568 85.7785 5.94 83.7397C6.62676 78.8976 8.37486 77.5003 14.1454 77.1664L18.8992 76.894L20.5224 71.6212C21.4143 68.7212 23.0286 62.394 24.1168 57.5606C25.7846 50.1524 26.1949 47.0152 27.9876 45.7058C29.2897 44.7479 31.3411 44.7655 35.1495 44.8006C35.9432 44.8094 36.8173 44.8182 37.7805 44.8182C44.8711 44.8182 48.1978 44.4843 48.7865 43.7197C49.937 42.217 52.1668 33.9827 56.1446 16.53C56.2784 15.9149 56.4211 15.3612 56.5549 14.8515C56.9651 13.2961 57.2505 12.2064 56.867 11.4331C56.1803 10.0621 53.3351 9.7282 45.1922 9.66669H127.888L126.399 15.5985C124.41 23.5252 120.887 38.737 119.531 45.2576C118.925 48.1576 118.104 51.5146 117.712 52.7273C117.311 53.94 116.133 58.6855 115.081 63.2727C114.028 67.86 112.289 75.0749 111.228 79.3018L109.292 86.9824L75.6057 87.2109C53.9238 87.3603 41.9011 87.7558 41.8832 88.3182C41.8654 88.8015 44.0862 90.357 46.8332 91.7718C51.3997 94.127 51.8011 94.5664 51.5514 97.0446L51.2838 99.7424L35.2297 99.9709C16.8924 100.226 15.5814 100.454 18.5068 102.801C19.6484 103.723 20.5135 105.402 20.5135 106.694ZM238.287 83.8891L234.416 86.5606L193.541 87.123L193.496 79.8115C193.469 75.7867 193.469 62.807 193.487 50.9697L193.523 29.4394L212.038 29.1758C232.9 28.877 235.638 29.334 240.855 33.9827C244.566 37.2782 244.958 37.12 245.458 32.0758L245.716 29.4394L297 28.9737V32.9634C297 35.793 297 37.41 296.188 38.3327C295.118 39.5455 292.63 39.5455 286.85 39.5455H286.708C278.645 39.5455 277.432 39.7388 276.995 41.1185C276.718 41.9797 276.54 51.9627 276.602 63.3079C276.665 74.6443 276.665 84.6361 276.602 85.5061C276.504 86.8858 275.728 87.044 270.466 86.8243L264.446 86.5606L264 63.5627C263.759 50.917 263.349 40.3715 263.108 40.1343C262.867 39.8882 258.444 39.5806 253.297 39.4488L243.932 39.194L243.406 43.544C242.719 49.3088 241.453 52.1034 238.51 54.3882L236.066 56.2776L239.714 59.3446C243.915 62.8861 245.663 67.1746 245.056 72.4385C244.441 77.8255 242.639 80.8749 238.287 83.8891ZM308.461 86.5518C297.776 92.5715 284.772 85.1985 286.592 74.1521C287.742 67.1306 293.629 63.0179 304.135 61.9018C311.029 61.1637 313.054 60.2849 313.054 58C313.054 54.1246 304.956 53.1755 300.862 56.5764C298.65 58.4043 297.803 58.5888 294.057 58.0264C288.224 57.1564 287.43 56.1809 289.571 52.5691C292.514 47.604 297.08 45.7321 306.258 45.7146C322.472 45.6794 324.916 48.0873 325.407 64.5909C325.585 70.3909 326.129 75.6285 326.629 76.2349C327.984 77.8606 331.837 77.5618 335.146 75.5758C338.669 73.4579 340.114 73.3788 341.639 75.1891C343.084 76.9027 348.302 79.0909 350.933 79.0909C353.885 79.0909 358.335 77.3773 358.853 76.0415C359.834 73.5194 357.167 72.0343 349.176 70.6809C339.436 69.0288 334.95 66.4012 333.452 61.4888C330.312 51.163 340.194 43.6143 354.527 45.3894C359.709 46.0221 363.357 47.6303 366.755 50.7676C369.609 53.3952 369.404 53.9224 364.588 56.3391L360.94 58.1758L357.524 56.2776C355.053 54.9067 352.939 54.4585 349.862 54.6518C346.027 54.8979 345.608 55.1352 345.608 57.0509C345.608 58.914 346.232 59.327 350.514 60.3112C353.207 60.9352 356.739 61.4537 358.353 61.48C361.421 61.5152 367.335 64.0637 368.985 66.0673C369.52 66.7 370.447 68.8706 371.054 70.8743C372.053 74.2049 371.964 74.8552 370.028 78.3088C368.681 80.7079 366.3 83.0718 363.517 84.7679C359.745 87.0615 358.104 87.4833 351.825 87.747C345.617 88.0018 343.682 87.7118 338.919 85.8224L333.309 83.5903L330.455 85.7346C326.95 88.3709 322.588 88.5115 318.611 86.1212C314.811 83.8364 313.161 83.9067 308.461 86.5518ZM424.077 99.8127C420.991 102.133 411.242 103.407 407.764 101.948C405.998 101.201 405.748 100.542 405.98 97.3346L406.257 93.5909L410.957 93.0285C415.693 92.4573 418.306 91.1303 418.288 89.3112C418.279 88.7664 415.363 81.2 411.804 72.5L405.338 56.6818H391.095L390.836 65.7773C390.551 75.9624 391.104 77.3333 395.483 77.3333C398.854 77.3333 400.459 78.6867 400.459 81.5252C400.459 86.0861 399.113 87 392.361 87C385.199 87 381.204 85.4182 379.91 82.07C379.438 80.8485 379.045 75.0397 379.036 69.143C379.036 63.2552 378.733 57.9824 378.367 57.4288C378.011 56.8752 376.717 56.2776 375.486 56.1106C373.444 55.8294 373.257 55.4252 373.257 51.4091C373.257 47.103 373.319 47.0064 376.12 46.7427L378.974 46.4703L379.241 40.1518L379.5 33.8334L383.933 33.5609C389.436 33.2182 390.649 34.554 390.649 40.934C390.649 44.2997 391.023 45.653 392.058 46.0397C392.834 46.3385 398.185 46.5758 403.947 46.5758H414.418L417.245 54.7046C422.275 69.1518 423.221 71.4806 424.211 71.8058C425.343 72.1749 426.048 70.5052 429.972 58C431.56 52.9206 433.245 48.2806 433.718 47.6743C434.218 47.0327 436.581 46.5758 439.364 46.5758C443.814 46.5758 444.162 46.7252 444.162 48.6497C444.162 51.0049 436.331 74.6882 435.136 75.9712C434.699 76.4282 434.351 77.4212 434.36 78.1682C434.36 79.4776 429.928 91.35 427.814 95.6824C427.252 96.8336 425.566 98.6967 424.077 99.8127ZM142.391 84.3637C141.436 86.297 140.66 86.5958 135.835 86.8243C129.422 87.123 128.593 86.3673 130.457 81.8679C131.893 78.4143 132.767 76.2261 137.842 63.2727C146.627 40.8285 150.953 30.2303 151.684 29.3691C152.389 28.5343 166.472 28.3321 167.194 29.1494C167.453 29.4394 174.204 46.3561 181.161 64.1515C183.15 69.2309 185.121 74.1697 185.549 75.1364C190.579 86.5255 190.49 87 183.391 87C176.693 87 176.059 86.4815 173.402 78.7658L171.546 73.3788L162.699 72.9394C157.829 72.6933 152.273 72.6933 150.346 72.9394C147.091 73.3437 146.725 73.6864 145.164 77.7727C144.237 80.1894 142.988 83.1509 142.391 84.3637ZM207.588 75.5758C208.587 76.1909 212.502 76.3843 218.514 76.0943C227.227 75.69 228.021 75.4967 229.885 73.37C232.498 70.3909 232.507 66.4364 229.912 64.6437C228.378 63.5803 225.444 63.2727 216.979 63.2727H206.027V68.9409C206.027 73.3876 206.366 74.82 207.588 75.5758ZM206.419 50.7237C206.83 51.7606 208.836 51.9452 217.247 51.7079C228.761 51.374 230.108 50.6973 230.108 45.1961C230.108 40.644 228.431 39.9849 216.819 39.9849H206.473L206.196 44.7127C206.045 47.314 206.152 50.0206 206.419 50.7237ZM152.059 60.6276C152.371 61.1109 155.653 61.5152 159.354 61.5152H166.097L165.642 59.0985C164.804 54.5552 161.316 43.544 160.362 42.4103C159.238 41.0746 156.973 42.4806 156.973 44.5106C156.973 45.1961 155.742 48.8958 154.235 52.7449C152.736 56.5852 151.755 60.1355 152.059 60.6276ZM300.764 78.5988C303.279 80.3388 304.456 80.3212 308.345 78.5021C311.725 76.9203 314.017 72.9746 313.25 70.0658C312.84 68.5103 312.242 68.3785 307.506 68.8003C304.296 69.0815 301.54 69.8724 300.505 70.804C298.151 72.9043 298.284 76.8852 300.764 78.5988Z" fill="#D6FE06"/>
</g>
<defs>
<clipPath id="clip0_25_56">
<rect width="132" height="116" fill="white"/>
</clipPath>
</defs>
</svg>


