<svg width="155" height="174" viewBox="0 0 155 174" fill="none" xmlns="http://www.w3.org/2000/svg">
<path d="M0.737849 54.9009L26.39 103.766C28.1414 107.095 32.4586 109.797 36.0249 109.788L88.355 109.677C91.9274 109.67 93.4014 106.961 91.6514 103.627L65.9968 54.7645C64.2468 51.4291 59.9305 48.7343 56.3608 48.7421L4.0316 48.8509C3.95087 48.8509 3.87275 48.8536 3.79201 48.8536C0.397223 48.9817 -0.975173 51.6405 0.737849 54.9009Z" fill="#75B82C"/>
<path d="M100.137 111.837L115.672 140.823C116.728 142.8 119.313 144.387 121.441 144.363L152.62 144.034C154.749 144.012 155.608 142.391 154.552 140.412L139.022 111.429C137.964 109.45 135.376 107.867 133.253 107.889L102.073 108.217C102.037 108.217 102.002 108.217 101.966 108.217C99.9164 108.293 99.0971 109.889 100.137 111.837Z" fill="#75B82C"/>
<path d="M100.319 1.77535L69.144 41.7905C67.0134 44.5244 66.731 49.4233 68.5102 52.7468L94.5738 101.39C96.3503 104.708 99.5195 105.186 101.647 102.459L132.825 62.4364C134.952 59.7077 135.237 54.8031 133.454 51.4827L107.395 2.83801C106.361 0.91801 104.868 -0.0499928 103.378 0.00200715C102.297 0.0460071 101.215 0.626014 100.319 1.77535Z" fill="#3D90D5"/>
<path d="M93.0176 112.322L74.4368 136.166C73.1649 137.794 73.0009 140.716 74.0586 142.691L89.5894 171.676C90.652 173.655 92.5378 173.94 93.8072 172.311L112.383 148.47C113.649 146.839 113.819 143.916 112.762 141.943L97.2301 112.957C96.6186 111.812 95.7258 111.234 94.8362 111.263C94.1946 111.286 93.5472 111.634 93.0176 112.322Z" fill="#3D90D5"/>
</svg>


