<svg width="151" height="281" viewBox="0 0 151 281" fill="none" xmlns="http://www.w3.org/2000/svg">
<g clip-path="url(#clip0_25_69)">
<path d="M151 100.9C151 45.4 100.5 -0.0999756 75.6999 -0.0999756C50.8999 -0.0999756 0.399902 45.4 0.399902 100.9C0.399902 128.2 8.69985 152.2 21.0999 170.4C25.1999 179.5 32.6999 189.4 39.2999 199.4C47.5999 211 55.8999 222.6 60.7999 234.2C56.6999 235.9 53.3999 239.2 51.6999 243.3C55.7999 244.1 59.9999 244.9 64.8999 245.8C77.2999 247.5 88.8999 246.6 95.4999 244.2C91.3999 247.5 78.8999 249.2 64.8999 248.3C60.1999 248.2 55.4999 247.7 50.7999 246.6V269.8C50.7999 278.9 58.2999 281.4 67.2999 281.4H90.4999C99.5999 281.4 107.1 278.9 107.1 269.8V249.1C107.1 241.6 101.3 235 93.8999 233.4C97.1999 226.8 100.5 220.1 103.8 213.5L109.6 201.9C111.3 198.6 114.6 192 117.9 186.2C136.9 168.8 151 137.3 151 100.9ZM103.8 200.2L97.9999 211.8C94.6999 218.4 90.4999 225.9 88.0999 233.3H78.1999V202.6H73.1999V233.2H64.0999C59.0999 221.6 50.8999 209.2 42.5999 196.8C40.0999 193.5 38.4999 191 35.9999 187.7C47.5999 196.8 60.7999 202.6 75.6999 202.6C87.1999 202.6 98.4999 199.2 108 192.7C106.3 194.5 105.5 196.9 103.8 200.2ZM103 192C103 192 127 166.3 133.6 129.9C124.5 140.7 109.6 148.1 92.1999 148.1C64.8999 148.1 42.4999 130.7 42.4999 109.2C42.4999 87.7 64.7999 70.3 92.1999 70.3C109.6 70.3 124.5 76.9 133.6 87.7C119.5 28.1 54.0999 13.2 54.0999 13.2C54.0999 13.2 58.1999 8.20003 67.2999 5.80003C74.7999 3.30003 78.0999 4.10003 82.9999 5.80003C88.7999 7.40003 145.9 38.9 145.9 100.2C145.2 159.7 103 192 103 192Z" fill="#8ABC00"/>
<path d="M109.6 98.5C105.5 98.5 101.3 96 95.4999 96C85.5999 96 80.5999 101.8 80.5999 108.4C80.5999 114.2 85.5999 120 95.4999 120C99.5999 120 106.3 117.5 108.7 117.5C112.8 117.5 116.2 120 116.2 122.5C116.2 128.3 101.3 130.8 94.7 130.8C75.7 130.8 63.2 120 63.2 108.4C63.2 96.8 76.4 85.2 94.7 85.2C102.2 85.2 116.2 86.9 116.2 92.7C117.1 95.1 113.8 98.5 109.6 98.5Z" fill="#8ABC00"/>
</g>
<defs>
<clipPath id="clip0_25_69">
<rect width="151" height="281" fill="white"/>
</clipPath>
</defs>
</svg>


