<svg width="109" height="59" viewBox="0 0 109 59" fill="none" xmlns="http://www.w3.org/2000/svg">
<path d="M108.277 53.7735L98.2292 38.8427C97.4714 37.692 97.7521 36.1484 98.9028 35.3906C98.9028 35.3906 98.9028 35.3906 98.9309 35.3906C103.534 32.3034 106.424 26.7745 106.424 20.4036C106.424 9.48614 97.3031 0.870026 86.0488 0.870026H61.8844C60.9582 0.870026 60.2285 1.59973 60.2285 2.52589V13.1066C60.2285 13.5556 60.5653 13.8924 61.0144 13.9205C69.1814 14.3695 75.7768 21.414 75.7768 29.4688C75.7768 37.5797 69.1253 44.4838 61.0144 44.9329C60.5934 44.9609 60.2285 45.3258 60.2285 45.7468V56.0188C60.2285 56.9449 60.9582 57.6746 61.8844 57.6746H75.9171C76.8433 57.6746 77.573 56.9449 77.573 56.0188V51.0792C77.573 47.571 80.6041 46.701 82.9335 49.4514L88.8273 56.8326C89.3605 57.3659 90.0902 57.6746 90.8199 57.6746H106.2C107.575 57.6746 108.698 56.5801 108.698 55.2049C108.726 54.6716 108.557 54.1945 108.277 53.7735Z" fill="#FE5000"/>
<path d="M30.9563 0C39.7969 0 47.7114 3.76078 53.3525 9.79486C53.97 10.4684 53.9419 11.5069 53.2683 12.1243C53.2403 12.1524 53.2403 12.1524 53.2122 12.1804L45.1855 18.8881C44.54 19.4213 43.5857 19.3933 42.9683 18.8039C39.7688 15.6605 35.4467 13.8924 30.9563 13.8644C22.3963 13.8644 15.4641 20.3756 15.4641 29.2723C15.4641 38.1691 22.3963 44.5961 30.9563 44.5961C35.4467 44.568 39.7408 42.7999 42.9683 39.6566C43.5857 39.0672 44.54 39.0111 45.1855 39.5443L53.2122 46.28C53.9138 46.8694 53.998 47.9078 53.4367 48.6095C53.4087 48.6375 53.4087 48.6656 53.3806 48.6656C47.7394 54.6716 39.825 58.4605 30.9843 58.4605C13.8644 58.4605 0 46.1678 0 29.3004C0 12.433 13.8363 0 30.9563 0Z" fill="#FE5000"/>
</svg>


