<svg xmlns="http://www.w3.org/2000/svg" width="192" height="192"><path fill="#EA4335" d="M127.11 64.89c17.18 17.18 17.18 45.03.01 62.21l-.01.01c-8.59 8.59-8.59 22.52 0 31.11s22.52 8.59 31.11 0c34.37-34.37 34.36-90.09 0-124.45l-31.11 31.12z"/><linearGradient id="a" gradientUnits="userSpaceOnUse" x1="8" y1="83.113" x2="164.67" y2="83.113"><stop offset="0" stop-color="#246fdb"/><stop offset=".055" stop-color="#2973df"/><stop offset=".278" stop-color="#377deb"/><stop offset=".549" stop-color="#3f83f2"/><stop offset="1" stop-color="#4285f4"/></linearGradient><path fill="url(#a)" d="M158.23 33.77C123.87-.59 68.15-.6 33.78 33.77s-34.36 90.09 0 124.45l31.11-31.11c-17.18-17.18-17.18-45.04 0-62.23 17.18-17.18 45.04-17.18 62.23 0 8.59 8.59 22.52 8.59 31.11 0 8.59-8.58 8.59-22.51 0-31.11z"/><path fill="#FBBC04" d="M158.23 158.23l-31.11-31.11c-17.18 17.18-45.04 17.18-62.23 0l-31.11 31.11c34.36 34.36 90.08 34.36 124.45 0z"/><ellipse transform="rotate(-45.001 142.668 142.673)" fill="#EA4335" cx="142.67" cy="142.67" rx="22" ry="22"/><ellipse transform="rotate(-45.001 49.33 142.67)" fill="#34A853" cx="49.33" cy="142.67" rx="22" ry="22"/></svg>