<svg width="35" height="35" viewBox="0 0 35 35" fill="none" xmlns="http://www.w3.org/2000/svg">
<path d="M0.199951 19.6C0.699951 23.3 2.49995 26.6 4.99995 29.1L10.8 23.3C10.8 17.4 13.9 11.7 19.3 8.5L0.199951 19.6Z" fill="#9B65C3"/>
<path d="M10.8 23.3C7.89995 23.3 4.99995 22.6 2.29995 21C1.59995 20.6 0.899951 20.1 0.199951 19.6C0.699951 23.3 2.49995 26.6 4.99995 29.1L10.8 23.3Z" fill="#9B65C3"/>
<path d="M10.8 23.3L5 29.1C7.5 31.6 10.8 33.4 14.5 33.9L25.6 14.8C22.4 20.2 16.7 23.3 10.8 23.3Z" fill="#BE63C5"/>
<path d="M13.1 31.8C11.5 29.1 10.8 26.2 10.8 23.3L5 29.1C7.5 31.6 10.8 33.4 14.5 33.9C14 33.3 13.5 32.6 13.1 31.8Z" fill="#BF63C6"/>
<path d="M32.5 0.899994L19.3 8.5C13.8 11.7 7.4 11.4 2.3 8.5C0.799999 11 0 13.9 0 17.1C0 18 0.0999989 18.8 0.199999 19.6C0.899999 20.1 1.6 20.6 2.3 21C5 22.6 7.9 23.3 10.8 23.3L32.8 1.3C32.7 1.1 32.6 0.999994 32.5 0.899994Z" fill="#3278B1"/>
<path d="M2.29995 21C4.99995 22.6 7.89995 23.3 10.8 23.3C10.8 17.4 13.9 11.7 19.3 8.5L0.199951 19.6C0.799951 20.1 1.49995 20.6 2.29995 21Z" fill="#3278B2"/>
<path d="M2.3 8.5C0.799999 11 0 13.9 0 17.1C0 18 0.0999989 18.8 0.199999 19.6L19.3 8.5C13.9 11.7 7.4 11.5 2.3 8.5Z" fill="#45A4EC"/>
<path d="M32.8 1.3C32.7 1.2 32.6 1.1 32.4 1C32.2 0.9 32.1 0.699998 31.9 0.599998C31.3 0.199998 30.5 0 29.8 0H17C10.7 0 5.19995 3.4 2.19995 8.5C7.29995 11.4 13.8 11.7 19.2 8.5C13.7 11.7 10.7 17.4 10.7 23.3C16.6 23.3 22.3 20.2 25.5 14.8L33.1 1.6C33.1 1.5 33 1.4 32.8 1.3Z" fill="#19BB7D"/>
<path d="M19.3 8.5L32.5 0.899994C32.3 0.799994 32.2 0.6 32 0.5L2.30005 8.5C7.40005 11.5 13.9 11.7 19.3 8.5Z" fill="#08C7FB"/>
<path d="M29.8 0H17C10.7 0 5.19995 3.4 2.19995 8.5L31.9 0.5C31.3 0.2 30.6 0 29.8 0Z" fill="#59F2F6"/>
<path d="M25.5999 14.8L33.1999 1.60001C33.0999 1.50001 32.9999 1.40001 32.8999 1.20001L10.8999 23.2C10.8999 26.1 11.5999 29 13.1999 31.7C13.5999 32.4 14.0999 33.1 14.5999 33.8C15.3999 33.9 16.2999 34 17.0999 34C20.1999 34 23.0999 33.2 25.5999 31.7C22.5999 26.7 22.3999 20.2 25.5999 14.8Z" fill="#DA3757"/>
<path d="M10.8 23.3C10.8 26.2 11.5 29.1 13.1 31.8C13.5 32.5 14 33.2 14.5 33.9L25.6 14.8C22.4 20.2 16.7 23.3 10.8 23.3Z" fill="#D33C4E"/>
<path d="M25.6 14.8L14.5 33.9C15.3 34 16.2 34.1 17 34.1C20.1 34.1 23 33.3 25.5 31.8C22.6 26.7 22.4 20.2 25.6 14.8Z" fill="#EE5A24"/>
<path d="M33.5 2.1C33.4 1.9 33.3 1.7 33.1 1.6C33 1.5 32.9 1.4 32.8 1.2C32.7 1.1 32.6 0.999994 32.4 0.899994L19.2 8.5C13.7 11.7 10.7 17.4 10.7 23.3C16.6 23.3 22.3 20.2 25.5 14.8C22.3 20.3 22.6 26.7 25.5 31.8C30.6 28.9 34 23.3 34 17V4.3C34.1 3.5 33.9 2.8 33.5 2.1Z" fill="#8BDF55"/>
<path d="M32.5 0.899994L19.3 8.5C13.8 11.7 10.8 17.4 10.8 23.3L32.8 1.3C32.7 1.1 32.6 0.999994 32.5 0.899994Z" fill="#25C16F"/>
<path d="M10.8 23.3C16.7 23.3 22.4 20.2 25.6 14.8L33.2001 1.60001C33.1001 1.50001 33 1.40001 32.9 1.20001L10.8 23.3Z" fill="#8BDF55"/>
<path d="M33.1999 1.60001L25.5999 14.8C22.3999 20.3 22.6999 26.7 25.5999 31.8L33.5999 2.10001C33.3999 2.00001 33.2999 1.80001 33.1999 1.60001Z" fill="#FFBB00"/>
<path d="M25.6001 31.8C30.7001 28.9 34.1001 23.3 34.1001 17V4.30001C34.1001 3.50001 33.9001 2.80001 33.5001 2.20001L25.6001 31.8Z" fill="#FFA800"/>
</svg>


