<svg width="800" height="800" viewBox="0 0 800 800" fill="none" xmlns="http://www.w3.org/2000/svg">
<path d="M760.572 698.403C760.721 726.846 748.656 753.985 727.44 772.93C706.224 791.875 677.898 800.804 649.653 797.449C598.827 789.928 561.58 745.698 562.819 694.333V103.789C561.591 52.3683 598.929 8.11675 649.823 0.673229C678.04 -2.62951 706.32 6.32269 727.496 25.2617C748.673 44.2007 760.715 71.3092 760.572 99.7189V698.403Z" fill="#F9AB00"/>
<path d="M138.313 600.544C192.92 600.544 237.189 644.813 237.189 699.421C237.189 754.028 192.92 798.297 138.313 798.297C83.7049 798.297 39.4365 754.028 39.4365 699.421C39.4365 644.813 83.7049 600.544 138.313 600.544ZM398.477 300.863C343.611 303.871 301.042 349.893 302.315 404.827V670.419C302.315 742.499 334.03 786.255 380.5 795.583C409.673 801.496 439.959 793.974 462.977 775.1C485.994 756.225 499.302 728 499.219 698.233V400.248C499.268 373.639 488.625 348.125 469.682 329.437C450.739 310.749 425.084 300.454 398.477 300.863Z" fill="#E37400"/>
</svg>
