<svg width="800" height="800" viewBox="0 0 800 800" fill="none" xmlns="http://www.w3.org/2000/svg">
<g clip-path="url(#clip0_30_10)">
<path d="M469.568 767.239L330.705 631.83L628.932 327.284L772.705 468.193L469.568 767.239Z" fill="#8AB4F8"/>
<path d="M470.159 168.557L331.795 27.2841L29.25 326.966C-9.75 365.966 -9.75 429.193 29.25 468.239L327.25 768.193L468.159 636.375L241.114 397.602L470.159 168.557Z" fill="#4285F4"/>
<path d="M770.705 329.284L470.705 29.2841C431.659 -9.76136 368.341 -9.76136 329.295 29.2841C290.25 68.3295 290.25 131.648 329.295 170.693L629.295 470.693C668.341 509.739 731.659 509.739 770.705 470.693C809.75 431.648 809.75 368.33 770.705 329.284Z" fill="#8AB4F8"/>
<path d="M397.705 800.011C451.678 800.011 495.432 756.257 495.432 702.284C495.432 648.311 451.678 604.557 397.705 604.557C343.731 604.557 299.977 648.311 299.977 702.284C299.977 756.257 343.731 800.011 397.705 800.011Z" fill="#246FDB"/>
</g>
<defs>
<clipPath id="clip0_30_10">
<rect width="800" height="800" fill="white"/>
</clipPath>
</defs>
</svg>
