<svg width="800" height="718" viewBox="0 0 800 718" fill="none" xmlns="http://www.w3.org/2000/svg">
<path d="M18.4 520.016L284 65.3125C317.738 85.1746 487.862 179.326 515.338 197.23L249.738 651.961C220.69 690.333 -18.4 578.25 18.4 519.988V520.016Z" fill="#FBBC04"/>
<path d="M781.513 520.006L515.913 65.3297C478.782 3.53663 398.81 -18.9185 333.127 17.578C267.444 54.0746 247.444 132.695 284.575 197.247L550.175 651.978C587.306 713.744 667.279 736.199 732.962 699.702C795.775 663.206 818.644 581.799 781.513 520.061V520.006Z" fill="#4285F4"/>
<path d="M133.324 717.278C206.957 717.278 266.648 659.068 266.648 587.264C266.648 515.459 206.957 457.25 133.324 457.25C59.6912 457.25 0 515.459 0 587.264C0 659.068 59.6912 717.278 133.324 717.278Z" fill="#34A853"/>
</svg>
