<svg xmlns="http://www.w3.org/2000/svg" viewBox="0 0 24 24" fill="#FF7A59"><path d="M18.164 7.93V5.084a2.198 2.198 0 0 0 1.267-1.984v-.066A2.198 2.198 0 0 0 17.238.84h-.067a2.198 2.198 0 0 0-2.193 2.193v.066c0 .87.507 1.62 1.24 1.977v2.859a6.563 6.563 0 0 0-3.394 1.682L5.705 4.2a2.6 2.6 0 0 0 .087-.655A2.612 2.612 0 0 0 3.18.932a2.612 2.612 0 0 0-2.613 2.612A2.612 2.612 0 0 0 3.18 6.156c.467 0 .902-.126 1.28-.343l6.965 5.383a6.542 6.542 0 0 0-.887 3.288c0 1.186.317 2.3.867 3.262l-2.148 2.148a1.865 1.865 0 0 0-.561-.095 1.881 1.881 0 0 0-1.88 1.88 1.881 1.881 0 0 0 1.88 1.88 1.881 1.881 0 0 0 1.88-1.88c0-.2-.035-.39-.094-.57l2.116-2.115a6.553 6.553 0 0 0 4.03 1.387c3.627 0 6.573-2.946 6.573-6.574a6.573 6.573 0 0 0-5.037-6.39zm-1.12 9.714a3.323 3.323 0 1 1-.001-6.646 3.323 3.323 0 0 1 0 6.646z"/></svg>


