<svg xmlns="http://www.w3.org/2000/svg" viewBox="0 0 24 24" fill="#6AFDEF"><path d="M20.586 7.328v10.605c0 .732-.601 1.327-1.344 1.327H4.758c-.742 0-1.344-.595-1.344-1.327V6.066c0-.733.602-1.327 1.344-1.327h14.484c.743 0 1.344.594 1.344 1.327zm-2.469 9.48c.202 0 .367-.152.367-.338V7.53c0-.186-.165-.338-.367-.338H5.883c-.202 0-.367.152-.367.338v8.94c0 .186.165.338.367.338zM8.43 15.363v-6.8a.55.55 0 0 0-1.099 0v6.8a.55.55 0 0 0 1.099 0zm2.72.79v-8.38a.55.55 0 0 0-1.1 0v8.38a.55.55 0 0 0 1.1 0zm2.72-.47v-7.44a.55.55 0 0 0-1.1 0v7.44a.55.55 0 0 0 1.1 0zm2.72.47v-8.38a.55.55 0 0 0-1.1 0v8.38a.55.55 0 0 0 1.1 0z"/></svg>


