<svg viewBox="0 0 32 32" xmlns="http://www.w3.org/2000/svg" fill="#FFCD00">
<path d="M20.1 17.435c-0.009 0.358-0.301 0.644-0.66 0.644-0.005 0-0.010-0-0.014-0h-2.255c-0.004 0-0.009 0-0.014 0-0.359 0-0.651-0.287-0.66-0.644l-0-0.001v-4.774c0.009-0.39 0.326-0.703 0.718-0.703s0.709 0.313 0.718 0.702v4.13h1.494c0.004-0 0.009-0 0.014-0 0.359 0 0.651 0.287 0.66 0.644l0 0.001zM12.721 15.706l0.702-1.995 0.702 1.995zM14.36 12.653c-0.126-0.405-0.498-0.694-0.937-0.694s-0.81 0.289-0.935 0.687l-0.002 0.007-1.681 4.426c-0.213 0.663-0.027 0.909 0.167 0.998 0.131 0.061 0.284 0.097 0.445 0.097 0.001 0 0.001 0 0.002 0h-0c0.021 0.003 0.046 0.004 0.071 0.004 0.223 0 0.416-0.126 0.512-0.311l0.002-0.003 0.348-0.912 2.143 0 0.348 0.911c0.098 0.188 0.291 0.315 0.514 0.315 0.025 0 0.050-0.002 0.074-0.005l-0.003 0c0 0 0.001 0 0.001 0 0.162 0 0.315-0.036 0.452-0.099l-0.007 0.003c0.194-0.089 0.38-0.335 0.166-1zM24.794 17.029c0.086 0.115 0.138 0.261 0.138 0.418 0 0.388-0.315 0.703-0.703 0.703-0.226 0-0.427-0.107-0.556-0.273l-0.001-0.002-1.649-2.184-0.244 0.244v1.534c-0.005 0.384-0.318 0.694-0.703 0.694s-0.698-0.309-0.703-0.693v-4.809c0-0.388 0.315-0.703 0.703-0.703s0.703 0.315 0.703 0.703v0 1.511l1.961-1.961c0.098-0.097 0.234-0.156 0.383-0.156 0.003 0 0.005 0 0.008 0h-0c0.364 0.010 0.66 0.293 0.69 0.651l0 0.003c0.001 0.013 0.002 0.029 0.002 0.044 0 0.149-0.060 0.285-0.157 0.384l-1.602 1.602zM11.063 13.335h-1.097v4.176c-0.018 0.375-0.326 0.671-0.703 0.671s-0.685-0.297-0.703-0.67l-0-0.002v-4.176h-1.097c-0.38 0-0.688-0.308-0.688-0.688s0.308-0.688 0.688-0.688h3.599c0.38 0 0.688 0.308 0.688 0.688s-0.308 0.688-0.688 0.688v0zM16 24.435c-0.003 0-0.006 0-0.010 0-0.76 0-1.507-0.055-2.237-0.161l0.083 0.010c-0.703 0.495-4.765 3.349-5.148 3.402-0.037 0.014-0.080 0.022-0.125 0.022-0.060 0-0.118-0.015-0.168-0.041l0.002 0.001c-0.134-0.079-0.109-0.285-0.109-0.285 0.040-0.275 1.053-3.772 1.24-4.415-3.243-1.395-5.513-4.48-5.71-8.116l-0.001-0.024c0-5.306 5.455-9.607 12.184-9.607s12.184 4.301 12.184 9.607-5.455 9.607-12.184 9.607zM28.653 1.004h-25.305c-0 0-0 0-0 0-1.294 0-2.343 1.049-2.343 2.343 0 0 0 0 0 0v0 25.305c0 0 0 0 0 0 0 1.294 1.049 2.343 2.343 2.343 0 0 0 0 0 0h25.305c0 0 0 0 0 0 1.294 0 2.343-1.049 2.343-2.343 0-0 0-0 0-0v0-25.305c0-0 0-0 0-0 0-1.294-1.049-2.343-2.343-2.343-0 0-0 0-0 0v0z"/>
</svg>