<svg width="166" height="174" viewBox="0 0 166 174" fill="none" xmlns="http://www.w3.org/2000/svg">
<rect x="-9.5" y="-12.5" width="867" height="201" stroke="black"/>
<rect x="-9.5" y="-12.5" width="867" height="201" stroke="black" stroke-opacity="0.2"/>
<path d="M61.2846 26.0804C66.0586 18.9749 72.4601 12.7829 79.9466 8.11359C87.3246 12.6814 93.6176 18.7719 98.3916 25.7759C110.869 42.0171 117.162 61.608 116.294 81.605C120.2 84.5488 124.215 87.391 128.012 90.3347C133.437 94.9025 136.041 101.805 134.739 108.505C132.895 116.828 131.159 125.152 129.206 133.475C127.904 137.13 123.672 139.058 119.875 137.84C119.224 137.637 118.573 137.333 118.03 136.927C111.737 132.257 105.661 127.385 99.3681 122.614C88.6266 132.156 71.9176 132.257 61.0676 122.817C56.6191 125.862 52.3876 129.618 48.0476 132.968C46.0946 134.693 44.0331 136.318 41.6461 137.536C37.8486 138.957 33.5086 137.13 32.0981 133.577C31.9896 133.374 31.9896 133.171 31.8811 133.069C29.9281 124.949 27.7581 116.828 25.8051 108.708C24.2861 101.602 26.9986 94.395 32.8576 89.7257C36.2211 87.188 39.6931 84.6503 43.1651 82.1126C44.1416 81.605 43.5991 80.59 43.7076 79.8794C43.2736 60.6945 49.4581 41.8141 61.2846 26.0804ZM67.4691 51.2543C62.9121 56.7357 63.4546 64.5518 68.7711 69.4241C74.8471 74.9055 84.5036 75.1086 90.7966 69.8302C95.2451 66.0744 96.7641 60.0854 94.7026 54.8071C92.5326 49.7317 87.5416 46.1789 81.6826 45.7729C76.1491 45.1638 70.8326 47.2955 67.4691 51.2543Z" fill="#764ABC"/>
<path d="M59.1145 139.87C59.223 137.942 61.0675 136.521 63.0205 136.724C63.563 136.724 64.1055 136.927 64.5395 137.13C74.196 141.495 85.48 141.495 95.245 137.13C97.0895 136.216 99.2595 136.927 100.236 138.551C100.453 138.855 100.562 139.261 100.67 139.667C100.67 144.743 100.67 149.818 100.67 154.894C100.453 156.721 98.6085 158.142 96.6555 157.939C96.0045 157.837 95.462 157.634 94.9195 157.33C93.292 156.01 91.8815 154.589 90.254 153.269C87.7585 157.634 85.48 161.999 82.9845 166.364C81.8995 167.988 79.621 168.394 77.885 167.379C77.451 167.176 77.1255 166.77 76.9085 166.465C74.413 162.101 72.1345 157.736 69.5305 153.371C68.0115 154.792 66.4925 156.213 64.865 157.431C63.2375 158.548 60.8505 158.142 59.7655 156.518C59.44 156.01 59.223 155.503 59.1145 154.894C59.1145 149.92 59.1145 144.844 59.1145 139.87Z" fill="#764ABC"/>
<path d="M79.8382 66.6834C83.9612 66.7849 87.3247 63.7397 87.4332 59.8824C87.3247 56.0251 83.9612 52.9799 79.8382 52.9799C75.7152 52.8784 72.3517 55.9236 72.2432 59.7809C72.2432 63.6382 75.7152 66.7849 79.8382 66.6834Z" fill="#764ABC"/>
</svg>


