<svg xmlns="http://www.w3.org/2000/svg" width="236.754" height="400" viewBox="0 0 236.754 400">
  <g id="Lucky_Orange_-_icon" data-name="Lucky Orange - icon" transform="translate(4284.501 -10590.353)">
    <path id="Path_106970" data-name="Path 106970" d="M33.886,223.338C11.7,189.326-5.882,145.68,8.053,105.681S40.73,37.426,72.731,25.988c16.775-6,67.257-28.515,106.547,6.289s59.005,78.243,60.459,108.445c4.033,83.628-106.475,117.927-125.891,117.927C87.675,258.649,48.633,245.948,33.886,223.338Z" transform="translate(-4287.592 10731.703)" fill="#ff704c" fill-rule="evenodd"/>
    <path id="Path_106971" data-name="Path 106971" d="M59.168,4.813C44.088-16.217-4.18,112.68,18.7,128.573,24.491,132.6,91.9,50.482,59.168,4.813Z" transform="translate(-4160.17 10587.853)" fill="#424a3c" fill-rule="evenodd"/>
    <path id="Path_106972" data-name="Path 106972" d="M41.207,68.285C44.778,87.067,1.083,24.353,10.051,12.843,30.6-13.543,39.1,57.208,41.207,68.285Z" transform="translate(-4210.971 10647.753)" fill="#424a3c" fill-rule="evenodd"/>
  </g>
</svg>


