<svg viewBox="0 -24 256 256" xmlns="http://www.w3.org/2000/svg">
<g transform="translate(-1.000000, 0.000000)">
	<path d="M124.325988,172.739047 C85.4544168,172.739047 53.9547161,141.230702 53.9547161,102.360258 C53.9547161,63.499588 85.4544168,31.9965041 124.325988,31.9965041 C163.187033,31.9965041 194.693877,63.499588 194.693877,102.360258 C194.693877,141.230702 163.187033,172.739047 124.325988,172.739047 L124.325988,172.739047 L124.325988,172.739047 Z M255.117202,76.4115445 C243.111176,21.212921 176.917711,-11.2584937 107.26329,3.88746539 C37.6092444,19.0319209 -9.12851212,76.0593217 2.87601003,131.255314 C14.877525,186.453561 81.0739973,218.923848 150.728419,203.778641 C220.382088,188.632682 267.116837,131.605282 255.117202,76.4115445 L255.117202,76.4115445 L255.117202,76.4115445 Z" fill="#37808C"/>
	<path d="M123.997816,171.401982 C85.7819775,171.401982 54.814171,140.425536 54.814171,102.2112 C54.814171,64.0062536 85.7819775,33.034691 123.997816,33.034691 C162.203139,33.034691 193.178082,64.0062536 193.178082,102.2112 C193.178082,140.425536 162.203139,171.401982 123.997816,171.401982 L123.997816,171.401982 L123.997816,171.401982 Z M141.526508,15.0665422 C91.8269498,15.0665422 51.5276351,55.3621009 51.5276351,105.063162 C51.5276351,154.766852 91.8269498,195.06241 141.526508,195.06241 C191.225315,195.06241 231.527635,154.766852 231.527635,105.063162 C231.527635,55.3621009 191.225315,15.0665422 141.526508,15.0665422 L141.526508,15.0665422 L141.526508,15.0665422 Z" fill="#9BD3CD"/>
	<g transform="translate(78.000000, 61.000000)" fill="#1B1A19">
		<path d="M21.0163143,33.9485676 L13.4682739,18.1226223 C11.6667948,14.3730929 9.816334,10.136738 9.1829373,8.1400799 L9.0371139,8.2862772 C9.2805267,11.1107631 9.3295084,14.6651135 9.3781162,17.6357967 L9.5725473,33.9485676 L4.0705205,33.9485676 L4.0705205,0.2517851 L10.4003752,0.2517851 L18.5814384,16.7107532 C20.1395047,19.8272597 21.6003555,23.819828 22.038573,25.3782682 L22.184771,25.2320709 C22.038573,23.5278074 21.6979449,18.7070373 21.6979449,15.6391386 L21.6003555,0.2517851 L26.908325,0.2517851 L26.908325,33.9485676 L21.0163143,33.9485676"/>
		<path d="M41.661908,12.7660449 C38.642617,12.7660449 36.987335,15.152313 36.987335,19.1452552 L46.093068,19.1452552 C46.093068,15.152313 44.340197,12.7660449 41.661908,12.7660449 L41.661908,12.7660449 L41.661908,12.7660449 Z M36.938353,23.0895896 L36.938353,23.4791996 C36.938353,26.8877267 38.204773,30.4914327 43.025169,30.4914327 C45.313848,30.4914327 47.310506,29.6636048 49.160967,28.0565568 L51.25484,31.3192606 C48.674141,33.5103497 45.703458,34.5815904 42.39252,34.5815904 C35.428895,34.5815904 31.046343,29.5660154 31.046343,21.6773466 C31.046343,17.3437761 31.97176,14.4703085 34.114241,12.0358065 C36.110526,9.7471279 38.545401,8.724495 41.661908,8.724495 C44.09641,8.724495 46.336855,9.3575179 48.430354,11.2565864 C50.57321,13.2046367 51.64445,16.2235537 51.64445,21.9697411 L51.64445,23.0895896 L36.938353,23.0895896 L36.938353,23.0895896 Z"/>
	</g>
</g>
</svg>