<svg width="157" height="61" viewBox="0 0 157 61" fill="none" xmlns="http://www.w3.org/2000/svg">
<path d="M0 42.3296C0 39.4302 3.50546 37.9781 5.55564 40.0284L20.4718 54.9446C22.522 56.9949 21.07 60.5002 18.1706 60.5002H3.25441C1.45705 60.5002 0 59.0432 0 57.2458V42.3296ZM0 26.6179C0 27.481 0.342875 28.3089 0.953194 28.9191L31.5812 59.547C32.1914 60.1572 33.0192 60.5002 33.8823 60.5002H50.705C53.6044 60.5002 55.0565 56.9949 53.0062 54.9446L5.55564 7.49404C3.50546 5.44376 0 6.89588 0 9.79523V26.6179ZM0 -5.91644C0 -5.05334 0.342875 -4.22555 0.953194 -3.61525L64.1154 59.547C64.7256 60.1572 65.5536 60.5002 66.4166 60.5002H83.2393C86.1387 60.5002 87.5908 56.9949 85.5405 54.9446L5.55564 -25.0403C3.50549 -27.0904 0 -25.6384 0 -22.7391V-5.91644ZM32.5343 -5.91644C32.5343 -5.05334 32.8773 -4.22555 33.4875 -3.61525L92.0474 54.9446C94.0977 56.9949 97.603 55.5428 97.603 52.6434V35.8207C97.603 34.9577 97.26 34.1298 96.6498 33.5196L38.0899 -25.0403C36.0397 -27.0904 32.5343 -25.6384 32.5343 -22.7391V-5.91644ZM70.6243 -25.0403C68.574 -27.0904 65.0687 -25.6384 65.0687 -22.7391V-5.91644C65.0687 -5.05334 65.4117 -4.22555 66.0219 -3.61525L92.0474 22.4103C94.0977 24.4606 97.603 23.0085 97.603 20.1091V3.28641C97.603 2.42334 97.26 1.59542 96.6498 0.98522L70.6243 -25.0403Z" fill="#F9BD2B"/>
<path d="M138.393 42.7286L107.76 12.0954C105.71 10.0452 102.205 11.4973 102.205 14.3966V57.2455C102.205 59.0429 103.662 60.4999 105.459 60.4999H152.91C154.708 60.4999 156.165 59.0429 156.165 57.2455V53.3435C156.165 51.5461 154.702 50.1109 152.919 49.8788C147.45 49.1664 142.333 46.6683 138.393 42.7286ZM117.821 50.0891C114.948 50.0891 112.616 47.7569 112.616 44.8836C112.616 42.01 114.948 39.6779 117.821 39.6779C120.695 39.6779 123.027 42.01 123.027 44.8836C123.027 47.7569 120.695 50.0891 117.821 50.0891Z" fill="black"/>
<path d="M5.28038 39.7803L5.55564 40.028L20.4719 54.9443C22.4329 56.9054 21.1896 60.1978 18.5404 60.4804L18.1706 60.4999H3.25441C1.58543 60.4999 0.209886 59.2436 0.0218948 57.625L0 57.2455V42.3292C0 39.5559 3.20726 38.1068 5.28038 39.7803ZM5.28038 7.24662L5.55564 7.49435L32.5343 34.4731V60.5006L0.953194 28.9194C0.444595 28.4107 0.121721 27.7511 0.0282237 27.046L0 26.6182V9.79555C0 7.02225 3.20726 5.57308 5.28038 7.24662ZM0 -22.7391C0 -25.5124 3.20726 -26.9615 5.28038 -25.288L5.55564 -25.0403L32.5343 1.93843V27.9659L0.953194 -3.61526C0.444595 -4.12384 0.121721 -4.78346 0.0282237 -5.48868L0 -5.91645V-22.7391Z" fill="#1D4AFF"/>
<path d="M32.5344 1.93876L64.1155 33.5199C64.6243 34.0284 64.9471 34.6881 65.0405 35.3933L65.0687 35.8211V60.5006L33.4876 28.9194C32.9791 28.4107 32.6562 27.7512 32.5627 27.046L32.5344 26.6182V1.93876ZM32.5344 34.4724L53.0063 54.9443C54.9674 56.9054 53.7241 60.1979 51.0749 60.4804L50.7051 60.4999H32.5344V34.4724ZM37.8148 -25.288L38.09 -25.0403L64.1155 0.98522C64.6243 1.49372 64.9471 2.15342 65.0405 2.85865L65.0687 3.28641V27.9659L33.4876 -3.61525C32.9791 -4.12383 32.6562 -4.78345 32.5627 -5.48867L32.5344 -5.91644V-22.7391C32.5344 -25.5124 35.7418 -26.9614 37.8148 -25.288Z" fill="#F54E00"/>
</svg>


