<svg xmlns="http://www.w3.org/2000/svg" viewBox="0 0 24 24" fill="#FF4500"><path d="M12 0C5.373 0 0 5.373 0 12c0 6.627 5.373 12 12 12s12-5.373 12-12c0-6.627-5.373-12-12-12zm6.066 13.867c.079.334.12.679.12 1.033 0 2.633-3.067 4.766-6.853 4.766S4.48 17.533 4.48 14.9c0-.354.041-.699.12-1.033a1.756 1.756 0 0 1-.746-1.434 1.76 1.76 0 0 1 1.761-1.761c.455 0 .87.176 1.182.461 1.162-.789 2.734-1.292 4.48-1.352l.906-3.667a.3.3 0 0 1 .358-.225l2.568.595a1.244 1.244 0 1 1-.109.514l-2.316-.537-.804 3.258c1.707.078 3.244.581 4.382 1.359a1.75 1.75 0 0 1 1.188-.471 1.76 1.76 0 0 1 1.761 1.761c0 .584-.287 1.101-.746 1.42zM9.333 13.667a1.333 1.333 0 1 0 0 2.666 1.333 1.333 0 0 0 0-2.666zm5.334 0a1.333 1.333 0 1 0 0 2.666 1.333 1.333 0 0 0 0-2.666zm-4.3 3.9c.174.185.504.277.967.277.463 0 .793-.092.967-.277a.4.4 0 1 1 .566.566c-.329.35-.879.511-1.533.511s-1.204-.161-1.533-.511a.4.4 0 1 1 .566-.566z"/></svg>


