<svg xmlns="http://www.w3.org/2000/svg" viewBox="0 0 24 24" fill="#00A1E0"><path d="M10.006 5.415a4.195 4.195 0 0 1 3.045-1.306c1.56 0 2.954.9 3.69 2.205.63-.3 1.35-.45 2.1-.45 2.7 0 4.905 2.205 4.905 4.905s-2.205 4.905-4.905 4.905c-.39 0-.78-.045-1.155-.135-.585 1.185-1.785 2.01-3.195 2.01-.585 0-1.14-.135-1.635-.39a4.233 4.233 0 0 1-3.81 2.37c-1.875 0-3.51-1.23-4.065-2.94-.285.06-.585.09-.885.09-2.25 0-4.095-1.845-4.095-4.095 0-1.62.96-3.015 2.34-3.675a5.038 5.038 0 0 1-.285-1.665c0-2.79 2.265-5.055 5.055-5.055 1.68 0 3.165.825 4.08 2.085z"/></svg>


