<svg width="149" height="116" viewBox="0 0 149 116" fill="none" xmlns="http://www.w3.org/2000/svg">
<path d="M39.8919 20.2017C29.3678 20.1017 27.8644 30.4017 27.8644 38.1017C27.8644 45.8017 29.1673 56.2017 39.6914 56.3017C50.2155 56.4017 51.719 46.0017 51.719 38.3017C51.8192 30.5017 50.5162 20.2017 39.8919 20.2017ZM39.5912 76.4017C12.1284 76.2017 -0.0996185 58.1017 0.00061096 37.9017C0.10084 17.7017 12.6295 -0.19834 39.9921 0.00166013C67.455 0.20166 79.683 18.2017 79.5828 38.4017C79.4825 58.6017 67.0541 76.6017 39.5912 76.4017Z" fill="#1D3E90"/>
<path d="M109.05 20.2017C98.526 20.1017 97.0226 30.4017 97.0226 38.1017C96.9224 45.8017 98.3256 56.2017 108.85 56.3017C119.374 56.4017 120.877 46.0017 120.877 38.3017C120.977 30.5017 119.574 20.2017 109.05 20.2017ZM108.749 76.4017C81.2866 76.2017 69.0586 58.1017 69.1588 37.9017C69.259 17.7017 81.7877 -0.19834 109.15 0.00166013C136.613 0.20166 148.841 18.2017 148.741 38.4017C148.641 58.6017 136.112 76.6017 108.749 76.4017Z" fill="#1D3E90"/>
<path d="M10.5248 76.4017C30.27 85.2017 50.817 89.1017 73.1682 89.3017C96.6219 89.4017 114.463 85.0017 137.014 76.4017L136.914 100.702C116.768 110.702 94.8177 116.102 73.0679 115.902C49.3136 115.802 32.1743 110.902 10.4246 100.702L10.5248 76.4017Z" fill="#1D3E90"/>
</svg>


