<?xml version="1.0" encoding="UTF-8"?>
<svg version="1.1" xmlns="http://www.w3.org/2000/svg" width="480" height="480">
<path d="M0 0 C158.4 0 316.8 0 480 0 C480 158.4 480 316.8 480 480 C321.6 480 163.2 480 0 480 C0 321.6 0 163.2 0 0 Z " fill="#FEFEFE" transform="translate(0,0)"/>
<path d="M0 0 C1.78180571 1.10753966 3.55316877 2.2320961 5.3125 3.375 C8.72949709 5.5195359 9.68946732 6.00500859 13.875 5.9375 C14.90625 5.628125 15.9375 5.31875 17 5 C32.76562687 0.49061764 50.85288081 4.27364356 64.93359375 11.8359375 C65.95646484 12.41214844 65.95646484 12.41214844 67 13 C68.03125 13.556875 69.0625 14.11375 70.125 14.6875 C70.74375 15.120625 71.3625 15.55375 72 16 C72 16.66 72 17.32 72 18 C72.5775 18.2475 73.155 18.495 73.75 18.75 C76 20 76 20 77.75390625 22.01953125 C80.62670519 24.55259049 82.40072191 24.61342638 86.1875 24.9375 C109.09773039 27.72098593 128.27103008 38.22703489 143.375 55.75 C150.43688778 65.18103723 155.72715838 76.43985726 158 88 C158.3403125 89.7015625 158.3403125 89.7015625 158.6875 91.4375 C159.14263285 96.62601444 159.07691642 101.7953221 159 107 C158.34 107 157.68 107 157 107 C157 106.34 157 105.68 157 105 C156.15695312 104.79503906 155.31390625 104.59007812 154.4453125 104.37890625 C153.34960938 104.10949219 152.25390625 103.84007812 151.125 103.5625 C150.03445313 103.29566406 148.94390625 103.02882813 147.8203125 102.75390625 C145 102 145 102 143 101 C140.38273523 100.87283346 137.80523993 100.81023135 135.1875 100.8125 C134.41994385 100.81185547 133.6523877 100.81121094 132.86157227 100.81054688 C127.22623766 100.86215573 121.90733089 101.55492895 116.359375 102.5546875 C109.93792173 103.4059034 103.46402096 103.1493612 97 103 C97.71460274 106.23692871 97.71460274 106.23692871 100.75 107.625 C106.03257925 109.85993737 110.93392264 110.19291492 116.625 110.1875 C117.6759082 110.1884668 117.6759082 110.1884668 118.74804688 110.18945312 C124.64536628 110.13010224 130.25603353 109.3629751 136 108 C135.46422662 115.1436451 131.90582625 120.521265 126.6875 125.25 C116.25739128 133.50903459 103.99097499 135.25490575 91.0546875 135.69140625 C87.89281344 135.68555082 87.89281344 135.68555082 86 138 C84.97185135 145.29607411 86.73407383 152.43351417 88.375 159.5 C91.78334313 175.2135258 93.17108528 190.1212954 93.25 206.1875 C93.2554483 206.85910156 93.26089661 207.53070313 93.26651001 208.22265625 C93.44067016 237.06181293 86.74028861 265.90892427 66 287 C65.34 287 64.68 287 64 287 C64 287.66 64 288.32 64 289 C62.12014932 290.65851343 60.24713862 292.18109328 58.25 293.6875 C57.65944824 294.13448242 57.06889648 294.58146484 56.46044922 295.04199219 C46.05563804 302.78652971 31.41614604 312.47387663 18 313 C16.015625 311.5234375 16.015625 311.5234375 14.25 309.375 C8.11364437 302.82495747 2.47580234 299.8646275 -6.51611328 299.35913086 C-19.58957234 299.10069258 -28.1108488 303.75498013 -37.74609375 312.4609375 C-39.76422459 314.73439511 -40.8459066 316.58553081 -42.234375 319.23828125 C-44.38465231 322.79073323 -44.38465231 322.79073323 -46.91821289 323.65234375 C-49.23271422 323.84454424 -51.49058716 323.85287095 -53.8125 323.8125 C-64.28694088 324.22779956 -70.31211849 328.37722554 -78.34033203 334.72900391 C-83.65318608 338.79765912 -89.83098092 341.50614122 -96 344 C-95.125 338.25 -95.125 338.25 -94 336 C-95.0725 336.5775 -96.145 337.155 -97.25 337.75 C-102.63114931 340.44533673 -108.27728185 342.18050782 -114 344 C-115.60501556 344.5391461 -117.20927269 345.08055932 -118.8125 345.625 C-134.35636143 350.7690117 -151.68581194 353.04550505 -167 346 C-172.32168745 343.18854248 -176.98894271 339.26295283 -180 334 C-181.04280345 329.75550812 -181.12062038 326.23280964 -180 322 C-176.57460009 317.16758986 -171.79417388 314.15883478 -166 313 C-158.07641576 311.93434847 -150.16366578 311.806461 -142.1796875 311.71875 C-140.19525068 311.69061877 -138.21081392 311.66248254 -136.2263813 311.63405609 C-132.07769911 311.57599827 -127.92891777 311.52555279 -123.78015137 311.47393799 C-120.34811232 311.43096488 -116.91611707 311.38625069 -113.48416138 311.33703613 C-110.92210242 311.30066298 -108.35998458 311.268168 -105.79782104 311.2401123 C-99.78244956 311.15404139 -93.94915832 310.91029401 -88 310 C-84.93457658 302.85671973 -83.43205615 295.44137685 -81.89282227 287.85888672 C-81.44517294 285.6626447 -80.9821532 283.47005909 -80.51757812 281.27734375 C-78.85020276 273.25200167 -77.62376036 265.29813566 -76.80378723 257.14407349 C-75.83936908 247.88059144 -74.23518954 238.72455689 -72.65087891 229.55029297 C-72.12582387 226.50477877 -71.61119849 223.45763048 -71.09765625 220.41015625 C-69.52808455 211.18339555 -67.87361745 201.9866341 -65.8671875 192.84375 C-65.70912628 192.1175647 -65.55106506 191.39137939 -65.38821411 190.64318848 C-64.5480346 186.93419113 -63.48251336 183.49879488 -62 180 C-61.67122232 178.42395459 -61.3795631 176.83972058 -61.125 175.25 C-60.48735299 171.82076451 -59.64598639 169.03824331 -58.0625 165.9375 C-54.82067363 159.06820249 -54.0756731 151.44772442 -53 144 C-52.8040625 142.73414063 -52.608125 141.46828125 -52.40625 140.1640625 C-51.35100468 132.61376333 -50.93712823 125.10464117 -50.796875 117.48828125 C-50.78265503 116.72132935 -50.76843506 115.95437744 -50.75378418 115.16418457 C-50.69601114 111.97810823 -50.63856898 108.79202868 -50.58398438 105.605896 C-50.3831872 94.9857441 -49.68718517 85.04117326 -46.7421875 74.76953125 C-46.49726563 73.85558594 -46.25234375 72.94164062 -46 72 C-46.33 71.67 -46.66 71.34 -47 71 C-48.5159375 71.99 -48.5159375 71.99 -50.0625 73 C-53.84399374 75.13570193 -56.62342481 75.74319201 -61 75 C-64.80853941 71.28083065 -65.61150311 68.51132296 -65.6875 63.25 C-65.4998052 55.78913155 -63.07084683 52.19028862 -58 47 C-56.98170606 45.68058527 -55.97581759 44.35113205 -55 43 C-55.598125 42.9175 -56.19625 42.835 -56.8125 42.75 C-59.76224781 41.73865789 -60.54953762 40.75587853 -62 38 C-62.52454143 33.95353751 -62.33114895 31.6622979 -60.5 28 C-56.51341563 23.21609875 -51.88696933 18.34558934 -46 16 C-44.68 16 -43.36 16 -42 16 C-42 15.34 -42 14.68 -42 14 C-42.88751953 13.97873047 -42.88751953 13.97873047 -43.79296875 13.95703125 C-48.09944984 13.69709683 -50.47515126 13.37489196 -54.0625 10.8125 C-56 8 -56 8 -56.6875 5.125 C-55.52477278 -0.16012373 -52.46282831 -3.31360552 -48.0546875 -6.33203125 C-33.61964314 -13.86914851 -13.55605644 -6.78766979 0 0 Z " fill="#CECCCB" transform="translate(251,69)"/>
<path d="M0 0 C1.43774504 2.15661756 2.70183869 4.23710217 3.9375 6.5 C5.82331155 9.80538925 7.33717266 12.3586758 11.00537109 13.7734375 C13 15 13 15 13.88134766 17.14453125 C14.1450415 18.46517578 14.1450415 18.46517578 14.4140625 19.8125 C14.61684814 20.79541016 14.81963379 21.77832031 15.02856445 22.79101562 C15.32380005 24.37946289 15.32380005 24.37946289 15.625 26 C15.83664795 27.09505859 16.0482959 28.19011719 16.26635742 29.31835938 C16.87288568 32.54123319 17.44519052 35.76785782 18 39 C18.13712402 39.78503906 18.27424805 40.57007813 18.41552734 41.37890625 C20.16062326 51.91347679 20.19768271 62.53625233 20.25 73.1875 C20.2554483 73.85910156 20.26089661 74.53070313 20.26651001 75.22265625 C20.44067016 104.06181293 13.74028861 132.90892427 -7 154 C-7.66 154 -8.32 154 -9 154 C-9 154.66 -9 155.32 -9 156 C-10.87985068 157.65851343 -12.75286138 159.18109328 -14.75 160.6875 C-15.34055176 161.13448242 -15.93110352 161.58146484 -16.53955078 162.04199219 C-26.94436196 169.78652971 -41.58385396 179.47387663 -55 180 C-56.984375 178.5234375 -56.984375 178.5234375 -58.75 176.375 C-64.88635563 169.82495747 -70.52419766 166.8646275 -79.51611328 166.35913086 C-92.58957234 166.10069258 -101.1108488 170.75498013 -110.74609375 179.4609375 C-112.76422459 181.73439511 -113.8459066 183.58553081 -115.234375 186.23828125 C-117.38465231 189.79073323 -117.38465231 189.79073323 -119.91821289 190.65234375 C-122.23271422 190.84454424 -124.49058716 190.85287095 -126.8125 190.8125 C-137.28694088 191.22779956 -143.31211849 195.37722554 -151.34033203 201.72900391 C-156.65318608 205.79765912 -162.83098092 208.50614122 -169 211 C-168.125 205.25 -168.125 205.25 -167 203 C-168.0725 203.5775 -169.145 204.155 -170.25 204.75 C-175.63114931 207.44533673 -181.27728185 209.18050782 -187 211 C-188.60501556 211.5391461 -190.20927269 212.08055932 -191.8125 212.625 C-207.35636143 217.7690117 -224.68581194 220.04550505 -240 213 C-245.32168745 210.18854248 -249.98894271 206.26295283 -253 201 C-254.04280345 196.75550812 -254.12062038 193.23280964 -253 189 C-249.57460009 184.16758986 -244.79417388 181.15883478 -239 180 C-231.07641576 178.93434847 -223.16366578 178.806461 -215.1796875 178.71875 C-213.19525068 178.69061877 -211.21081392 178.66248254 -209.2263813 178.63405609 C-205.07769911 178.57599827 -200.92891777 178.52555279 -196.78015137 178.47393799 C-193.34811232 178.43096488 -189.91611707 178.38625069 -186.48416138 178.33703613 C-183.92210242 178.30066298 -181.35998458 178.268168 -178.79782104 178.2401123 C-172.78244956 178.15404139 -166.94915832 177.91029401 -161 177 C-157.93457658 169.85671973 -156.43205615 162.44137685 -154.89282227 154.85888672 C-154.44517294 152.6626447 -153.9821532 150.47005909 -153.51757812 148.27734375 C-151.85443173 140.27233169 -150.63164403 132.34116403 -149.81738281 124.20751953 C-148.82284816 114.66324433 -147.12879863 105.23147356 -145.48608398 95.78125 C-144.92996347 92.58163894 -144.38136466 89.38080438 -143.83398438 86.1796875 C-143.48219487 84.13273958 -143.12999691 82.0858618 -142.77734375 80.0390625 C-142.61378891 79.08810699 -142.45023407 78.13715149 -142.28172302 77.15737915 C-142.12808792 76.27480438 -141.97445282 75.39222961 -141.81616211 74.48291016 C-141.61536293 73.32524643 -141.61536293 73.32524643 -141.4105072 72.14419556 C-141.20730614 71.08281876 -141.20730614 71.08281876 -141 70 C-140.80713158 68.94212784 -140.80713158 68.94212784 -140.61036682 67.86288452 C-139.55832227 64.65196703 -136.85304188 63.30244141 -134.1875 61.375 C-132.60001953 60.21097656 -132.60001953 60.21097656 -130.98046875 59.0234375 C-128.66569655 57.45194078 -126.50281098 56.20541899 -124 55 C-124.06058594 55.69037354 -124.12117187 56.38074707 -124.18359375 57.09204102 C-124.45883646 60.24859855 -124.72945535 63.40553647 -125 66.5625 C-125.09539062 67.64853516 -125.19078125 68.73457031 -125.2890625 69.85351562 C-125.74886969 75.2562501 -126.12447531 80.57754412 -126 86 C-125.06800781 85.24976563 -124.13601562 84.49953125 -123.17578125 83.7265625 C-116.73212494 78.54868511 -110.27544223 73.38711169 -103.75 68.3125 C-102.71359375 67.50425781 -101.6771875 66.69601562 -100.609375 65.86328125 C-98 64 -98 64 -95 63 C-95.51755404 71.44430279 -96.4560881 79.68086307 -98 88 C-95.78718112 86.77840273 -93.57998902 85.54809244 -91.375 84.3125 C-90.75753906 83.97283203 -90.14007813 83.63316406 -89.50390625 83.28320312 C-84.25262734 80.32590395 -78.80736251 77.0656786 -75.75 71.6875 C-75.1725 70.800625 -74.595 69.91375 -74 69 C-73.34 69 -72.68 69 -72 69 C-69.22149007 77.7765631 -70.81581144 89.01285471 -72 98 C-60.78368426 90.24754647 -50.69468622 82.96356329 -47.38360596 69.13870239 C-46.78609625 65.80743126 -46.92620831 62.61822434 -47.0859375 59.24609375 C-47.13068331 57.80018411 -47.17359747 56.35421683 -47.21484375 54.90820312 C-47.2890863 52.66642233 -47.37551854 50.42766809 -47.49365234 48.18774414 C-48.122744 35.62651436 -48.122744 35.62651436 -45.31542969 31.55957031 C-43.29671354 29.81795108 -41.26052574 28.40581479 -39 27 C-32.73979649 20.23416467 -25.92055496 10.76166489 -23 2 C-22.34 2 -21.68 2 -21 2 C-20.72736328 3.21623047 -20.72736328 3.21623047 -20.44921875 4.45703125 C-18.80684418 11.6919018 -17.01734237 18.86061104 -15 26 C-14.01 26 -13.02 26 -12 26 C-11.59587891 24.90751953 -11.59587891 24.90751953 -11.18359375 23.79296875 C-10.02854615 21.06736139 -8.67213588 18.79043818 -7.0625 16.3125 C-4.39206498 11.97467141 -2.80927966 7.85301977 -1.54296875 2.93359375 C-1 1 -1 1 0 0 Z " fill="#54B753" transform="translate(324,202)"/>
<path d="M0 0 C1.78180571 1.10753966 3.55316877 2.2320961 5.3125 3.375 C8.72949709 5.5195359 9.68946732 6.00500859 13.875 5.9375 C14.90625 5.628125 15.9375 5.31875 17 5 C32.91251406 0.44860406 50.63811983 4.5056865 65.01171875 11.65625 C67.24424317 13.16506808 68.51235413 14.77089254 70 17 C68.80246094 17.09796875 67.60492188 17.1959375 66.37109375 17.296875 C43.30102894 19.34760036 20.72933095 24.80746286 5 43 C-4.30993334 54.84223521 -5.07858742 68.30406771 -3.75 82.7109375 C-1.67848775 95.35579356 3.78557883 107.53225446 10.27954102 118.46704102 C13.13803677 123.45660171 13.13803677 123.45660171 12.4453125 126.18359375 C11.96835937 126.78300781 11.49140625 127.38242188 11 128 C10.50242187 128.77859375 10.00484375 129.5571875 9.4921875 130.359375 C8.95851563 131.14828125 8.42484375 131.9371875 7.875 132.75 C7.33617187 133.54921875 6.79734375 134.3484375 6.2421875 135.171875 C5.83226562 135.77515625 5.42234375 136.3784375 5 137 C5.99 137.928125 5.99 137.928125 7 138.875 C13.23710865 145.19995525 18.24297247 151.99963203 22.4375 159.8125 C22.77950439 160.44655762 23.12150879 161.08061523 23.47387695 161.73388672 C27.55186847 169.58695102 27.21415395 177.00827623 27.25 185.6875 C27.270625 186.91662109 27.29125 188.14574219 27.3125 189.41210938 C27.37341765 203.68968259 23.85609146 212.0332918 14.0625 222.1875 C5.0066568 231 5.0066568 231 1 231 C1 221.43 1 211.86 1 202 C0.34 202 -0.32 202 -1 202 C-1.2475 202.556875 -1.495 203.11375 -1.75 203.6875 C-6.19951107 211.91909548 -14.50273893 217.38866404 -23 221 C-23.66 221 -24.32 221 -25 221 C-25.18208839 215.34767292 -24.49420813 210.12021301 -23.5 204.5625 C-23.35691406 203.73556641 -23.21382812 202.90863281 -23.06640625 202.05664062 C-22.71615337 200.03684899 -22.35880704 198.01828958 -22 196 C-24.54298837 197.93576988 -27.08434007 199.87367515 -29.625 201.8125 C-30.388125 202.39475342 -31.15125 202.97700684 -31.9375 203.5769043 C-37.60320501 207.90912163 -43.22377897 212.29470683 -48.79541016 216.74731445 C-52.89309942 220 -52.89309942 220 -54 220 C-53.56666824 209.20091647 -52.96869049 198.64621946 -51 188 C-52.49853516 189.19109375 -52.49853516 189.19109375 -54.02734375 190.40625 C-55.33062889 191.43762673 -56.63401976 192.46886986 -57.9375 193.5 C-58.59685547 194.02464844 -59.25621094 194.54929687 -59.93554688 195.08984375 C-64.88671875 199 -64.88671875 199 -66 199 C-65.49815026 194.31606911 -64.8150271 189.88995416 -63.59375 185.328125 C-63.13666412 183.53586722 -62.72941888 181.73084569 -62.34375 179.921875 C-60.26360294 170.19944853 -60.26360294 170.19944853 -58 165.75 C-54.76525081 158.97184235 -54.06343829 151.36301327 -53 144 C-52.8040625 142.73414063 -52.608125 141.46828125 -52.40625 140.1640625 C-51.35100468 132.61376333 -50.93712823 125.10464117 -50.796875 117.48828125 C-50.78265503 116.72132935 -50.76843506 115.95437744 -50.75378418 115.16418457 C-50.69601114 111.97810823 -50.63856898 108.79202868 -50.58398438 105.605896 C-50.3831872 94.9857441 -49.68718517 85.04117326 -46.7421875 74.76953125 C-46.49726563 73.85558594 -46.25234375 72.94164062 -46 72 C-46.495 71.505 -46.495 71.505 -47 71 C-48.5159375 71.99 -48.5159375 71.99 -50.0625 73 C-53.84399374 75.13570193 -56.62342481 75.74319201 -61 75 C-64.80853941 71.28083065 -65.61150311 68.51132296 -65.6875 63.25 C-65.4998052 55.78913155 -63.07084683 52.19028862 -58 47 C-56.98170606 45.68058527 -55.97581759 44.35113205 -55 43 C-55.598125 42.9175 -56.19625 42.835 -56.8125 42.75 C-59.76224781 41.73865789 -60.54953762 40.75587853 -62 38 C-62.52454143 33.95353751 -62.33114895 31.6622979 -60.5 28 C-56.51341563 23.21609875 -51.88696933 18.34558934 -46 16 C-44.68 16 -43.36 16 -42 16 C-42 15.34 -42 14.68 -42 14 C-42.88751953 13.97873047 -42.88751953 13.97873047 -43.79296875 13.95703125 C-48.09944984 13.69709683 -50.47515126 13.37489196 -54.0625 10.8125 C-56 8 -56 8 -56.6875 5.125 C-55.52477278 -0.16012373 -52.46282831 -3.31360552 -48.0546875 -6.33203125 C-33.61964314 -13.86914851 -13.55605644 -6.78766979 0 0 Z " fill="#9B9B9A" transform="translate(251,69)"/>
<path d="M0 0 C12.21059873 13.17459336 17.25490396 26.20104411 17.328125 43.9296875 C17.34875 45.15880859 17.369375 46.38792969 17.390625 47.65429688 C17.45154265 61.93187009 13.93421646 70.2754793 4.140625 80.4296875 C-4.9152182 89.2421875 -4.9152182 89.2421875 -8.921875 89.2421875 C-8.921875 79.6721875 -8.921875 70.1021875 -8.921875 60.2421875 C-9.581875 60.2421875 -10.241875 60.2421875 -10.921875 60.2421875 C-11.169375 60.7990625 -11.416875 61.3559375 -11.671875 61.9296875 C-16.12138607 70.16128298 -24.42461393 75.63085154 -32.921875 79.2421875 C-33.581875 79.2421875 -34.241875 79.2421875 -34.921875 79.2421875 C-35.10396339 73.58986042 -34.41608313 68.36240051 -33.421875 62.8046875 C-33.27878906 61.97775391 -33.13570312 61.15082031 -32.98828125 60.29882812 C-32.63802837 58.27903649 -32.28068204 56.26047708 -31.921875 54.2421875 C-34.46486337 56.17795738 -37.00621507 58.11586265 -39.546875 60.0546875 C-40.31 60.63694092 -41.073125 61.21919434 -41.859375 61.8190918 C-47.52508001 66.15130913 -53.14565397 70.53689433 -58.71728516 74.98950195 C-62.81497442 78.2421875 -62.81497442 78.2421875 -63.921875 78.2421875 C-63.48854324 67.44310397 -62.89056549 56.88840696 -60.921875 46.2421875 C-61.92089844 47.03625 -62.91992188 47.8303125 -63.94921875 48.6484375 C-65.25250389 49.67981423 -66.55589476 50.71105736 -67.859375 51.7421875 C-68.51873047 52.26683594 -69.17808594 52.79148437 -69.85742188 53.33203125 C-74.80859375 57.2421875 -74.80859375 57.2421875 -75.921875 57.2421875 C-75.42002526 52.55825661 -74.7369021 48.13214166 -73.515625 43.5703125 C-73.05853912 41.77805472 -72.65129388 39.97303319 -72.265625 38.1640625 C-70.97170505 32.11639315 -69.4681004 26.67923596 -66.76171875 21.11328125 C-65.78203863 19.1231415 -65.78203863 19.1231415 -65.359375 16.3046875 C-64.921875 14.2421875 -64.921875 14.2421875 -61.921875 12.2421875 C-60.91404205 10.58024571 -59.91508154 8.91291146 -58.921875 7.2421875 C-49.00532166 -4.40293935 -40.03126333 -8.2470265 -25.19140625 -9.59375 C-14.99826857 -10.21677174 -7.4007677 -6.7888932 0 0 Z " fill="#98CD91" transform="translate(260.921875,210.7578125)"/>
<path d="M0 0 C0.66 0 1.32 0 2 0 C4.77850993 8.7765631 3.18418856 20.01285471 2 29 C8.97855189 24.17658913 15.18966372 19.18033411 21 13 C21.99659674 11.99660828 22.99541642 10.99539531 24 10 C18.44925016 36.7708039 -0.35199504 60.85711339 -18 81 C-18.680625 81.79277344 -19.36125 82.58554687 -20.0625 83.40234375 C-31.65470801 96.64734705 -44.29778776 110.19852517 -59 120 C-56.69 120.33 -54.38 120.66 -52 121 C-52 121.33 -52 121.66 -52 122 C-52.6084375 121.94457031 -53.216875 121.88914062 -53.84375 121.83203125 C-63.62052716 121.76014318 -69.68398208 127.14933247 -77.18945312 132.69970703 C-85.96207285 139 -85.96207285 139 -90 139 C-88.53051922 134.71070474 -86.24536793 131.35025569 -83.5625 127.75 C-62.83410573 99.23902215 -45.70549975 67.92873548 -31.6875 35.625 C-31.26281937 34.64923004 -31.26281937 34.64923004 -30.82955933 33.65374756 C-27.21188276 25.54984256 -27.21188276 25.54984256 -25 17 C-24.505 17.99 -24.505 17.99 -24 19 C-21.78718112 17.77840273 -19.57998902 16.54809244 -17.375 15.3125 C-16.75753906 14.97283203 -16.14007813 14.63316406 -15.50390625 14.28320312 C-10.25262734 11.32590395 -4.80736251 8.0656786 -1.75 2.6875 C-0.88375 1.3571875 -0.88375 1.3571875 0 0 Z " fill="#5BB952" transform="translate(250,271)"/>
<path d="M0 0 C6.87157613 -0.27792017 12.60218102 0.56768952 19.1875 2.5 C20.10732666 2.76989746 21.02715332 3.03979492 21.97485352 3.31787109 C41.83263351 9.45013978 59.44562628 23.41887992 69.24243164 41.84301758 C72.73863709 48.68626343 75.51015071 55.42231826 77 63 C77.226875 64.134375 77.45375 65.26875 77.6875 66.4375 C78.14263285 71.62601444 78.07691642 76.7953221 78 82 C77.34 82 76.68 82 76 82 C76 81.34 76 80.68 76 80 C75.15695312 79.79503906 74.31390625 79.59007812 73.4453125 79.37890625 C72.34960938 79.10949219 71.25390625 78.84007812 70.125 78.5625 C69.03445313 78.29566406 67.94390625 78.02882813 66.8203125 77.75390625 C64 77 64 77 62 76 C59.30194375 75.90039749 56.63517861 75.86115392 53.9375 75.875 C52.84791992 75.86919922 52.84791992 75.86919922 51.73632812 75.86328125 C47.98132758 75.86992139 44.32880828 76.03939406 40.6015625 76.50390625 C35.53933375 77.11984283 30.53081552 77.11107894 25.4375 77.0625 C24.52419922 77.05798828 23.61089844 77.05347656 22.66992188 77.04882812 C20.44654262 77.0371874 18.22330879 77.02083851 16 77 C16.0314209 75.95380493 16.0314209 75.95380493 16.06347656 74.88647461 C16.73782555 48.80239981 14.90879899 22.30494631 0 0 Z " fill="#EF77AC" transform="translate(332,94)"/>
<path d="M0 0 C9.62677206 4.04627897 16.89123783 10.37425447 21.16796875 19.9375 C23.58798832 27.05927188 23.47073592 35.42555346 20.390625 42.31640625 C15.63880624 51.19244506 9.71821723 58.55591159 -0.1953125 61.76953125 C-10.18002168 63.7282541 -18.40736119 62.73302206 -27.3515625 57.953125 C-29.79226908 56.14026628 -30.35998278 54.91665758 -31.64453125 52.25 C-32.96983417 51.56750868 -34.30359487 50.9012387 -35.64453125 50.25 C-37.09375 48.4453125 -37.09375 48.4453125 -38.33203125 46.375 C-38.74839844 45.69695312 -39.16476562 45.01890625 -39.59375 44.3203125 C-43.30643508 37.00535676 -42.89410153 26.02274891 -40.84375 18.19140625 C-36.81665035 9.32071596 -29.41871127 3.45219073 -20.4921875 -0.05859375 C-19.57759766 -0.40083984 -19.57759766 -0.40083984 -18.64453125 -0.75 C-13.55019982 -3.29716572 -5.30460418 -1.50440768 0 0 Z " fill="#FDFDFC" transform="translate(301.64453125,104.75)"/>
<path d="M0 0 C2.484375 1.48046875 2.484375 1.48046875 4.25 2.8125 C4.25 3.4725 4.25 4.1325 4.25 4.8125 C3.01636719 5.34037109 3.01636719 5.34037109 1.7578125 5.87890625 C-23.5286483 17.06217933 -38.46275542 35.68084639 -48.56298828 60.83740234 C-50.57464058 65.81894702 -52.44402599 67.76243508 -56.75 70.8125 C-60.37328619 72.02026206 -62.94611527 72.21290892 -66.75 71.8125 C-69.52200318 69.13985178 -70.63929919 67.37483297 -71.38671875 63.578125 C-71.49731049 55.9217739 -70.86321149 51.37893754 -65.57421875 45.6796875 C-64.97222656 45.06351563 -64.37023437 44.44734375 -63.75 43.8125 C-62.73170606 42.49308527 -61.72581759 41.16363205 -60.75 39.8125 C-61.348125 39.73 -61.94625 39.6475 -62.5625 39.5625 C-65.51224781 38.55115789 -66.29953762 37.56837853 -67.75 34.8125 C-68.27454143 30.76603751 -68.08114895 28.4747979 -66.25 24.8125 C-62.26341563 20.02859875 -57.63696933 15.15808934 -51.75 12.8125 C-50.43 12.8125 -49.11 12.8125 -47.75 12.8125 C-47.75 12.1525 -47.75 11.4925 -47.75 10.8125 C-48.63751953 10.79123047 -48.63751953 10.79123047 -49.54296875 10.76953125 C-53.84944984 10.50959683 -56.22515126 10.18739196 -59.8125 7.625 C-61.75 4.8125 -61.75 4.8125 -62.4375 1.9375 C-61.27477278 -3.34762373 -58.21282831 -6.50110552 -53.8046875 -9.51953125 C-37.50598969 -18.02973693 -14.51154773 -8.35328588 0 0 Z " fill="#EF77AB" transform="translate(256.75,72.1875)"/>
<path d="M0 0 C12.86764214 4.68115947 20.34677824 18.06430033 26.125 29.78125 C28.76162778 36.46698474 28.22081137 43.6202031 28.25 50.6875 C28.270625 51.91662109 28.29125 53.14574219 28.3125 54.41210938 C28.37341765 68.68968259 24.85609146 77.0332918 15.0625 87.1875 C6.0066568 96 6.0066568 96 2 96 C2 86.43 2 76.86 2 67 C1.34 67 0.68 67 0 67 C-0.2475 67.556875 -0.495 68.11375 -0.75 68.6875 C-5.19951107 76.91909548 -13.50273893 82.38866404 -22 86 C-22.66 86 -23.32 86 -24 86 C-24.43482481 80.78210227 -23.63706499 78.19324527 -21.18554688 73.49414062 C-18.70101728 68.26721429 -16.98066742 62.7240408 -15.125 57.25 C-14.90656433 56.6082785 -14.68812866 55.96655701 -14.46307373 55.3053894 C-12.95660673 50.87640393 -11.4729874 46.4402306 -10 42 C-9.67644531 41.02756348 -9.35289062 40.05512695 -9.01953125 39.05322266 C-4.80470152 26.22516905 -2.1293489 13.32658933 0 0 Z " fill="#ADD59A" transform="translate(250,204)"/>
<path d="M0 0 C7.65862687 15.31725374 -1.57657289 42.75854643 -6.375 58.0625 C-10.92598933 70.72125186 -17.20607403 82.25928278 -23.71240234 93.98608398 C-30.07980609 105.59073306 -35.96301287 117.52392473 -33.64453125 131.078125 C-31.65876452 137.63515339 -26.68522605 142.2067289 -22 147 C-22.99 147.33 -23.98 147.66 -25 148 C-27.15625 146.8203125 -27.15625 146.8203125 -29.5 145.125 C-37.06354725 139.70445781 -45.97684023 139.95093244 -55 141 C-63.69286689 143.53905365 -71.01834609 149.29739345 -77 156 C-77.74529987 157.50306295 -78.4575526 159.02328458 -79.125 160.5625 C-80.17578125 162.53515625 -80.17578125 162.53515625 -82 164 C-87.41263281 164.69645832 -92.57525952 164.45896747 -98 164 C-94.99489617 160.90634799 -91.93262476 158.05574364 -88.59838867 155.31030273 C-74.52240934 143.67584268 -61.02437499 130.58713032 -50 116 C-49.22140625 115.02675781 -48.4428125 114.05351562 -47.640625 113.05078125 C-37.0149893 99.71885101 -28.11943382 85.48952189 -21 70 C-20.29423828 68.48019531 -20.29423828 68.48019531 -19.57421875 66.9296875 C-18.27824629 63.9846603 -17.12802627 61.01311716 -16 58 C-15.30003906 56.33710938 -15.30003906 56.33710938 -14.5859375 54.640625 C-11.80393152 47.34038011 -10.83445105 40.67934021 -11.00390625 32.8515625 C-11.01798019 32.12416367 -11.03205414 31.39676483 -11.04655457 30.64732361 C-11.13339382 26.94848805 -11.29006565 23.26705819 -11.53588867 19.57543945 C-12.03551751 9.47164764 -12.03551751 9.47164764 -9.04882812 5.22705078 C-3.31319322 0 -3.31319322 0 0 0 Z " fill="#2EA654" transform="translate(288,228)"/>
<path d="M0 0 C3.43589264 2.02629566 5.79832501 4.46907121 8.4375 7.4375 C11.04860979 10.37733217 11.04860979 10.37733217 14.73046875 11.1015625 C17.05791133 10.57760316 19.15699113 9.87136063 21.375 9 C22.70390883 8.64944301 24.03618402 8.31058118 25.375 8 C28.69286065 13.56926609 30.09748976 17.49759217 29.375 24 C28.18721733 28.08500932 27.02375183 30.56749878 23.375 33 C22.09625 32.938125 20.8175 32.87625 19.5 32.8125 C17.37714058 32.67470635 17.37714058 32.67470635 15.375 33 C14.529375 33.845625 13.68375 34.69125 12.8125 35.5625 C10.375 38 10.375 38 6.9375 38.125 C0.97619965 36.2424841 -2.22151416 32.52879247 -6.1875 27.9375 C-10.54135648 22.35162202 -10.54135648 22.35162202 -16.8046875 19.73046875 C-19.4336992 19.68542338 -22.0025102 19.81376522 -24.625 20 C-25.95917969 20.04833984 -25.95917969 20.04833984 -27.3203125 20.09765625 C-32.62393658 20.40637467 -35.76826781 21.01471007 -39.625 25 C-39.625 23.68 -39.625 22.36 -39.625 21 C-44.75717903 23.25315177 -48.5346916 26.26063522 -52.625 30 C-50.79532058 18.47301968 -44.94188439 10.89016101 -35.625 4 C-25.43892952 -3.14090741 -11.61108866 -5.25007558 0 0 Z " fill="#EA75AA" transform="translate(256.625,370)"/>
<path d="M0 0 C-0.33333333 1.66666667 -0.66666667 3.33333333 -1 5 C-1.09796875 5.83015625 -1.1959375 6.6603125 -1.296875 7.515625 C-2 10 -2 10 -3.64453125 11.44140625 C-9.90335531 14.67795131 -16.27746921 16.91772077 -23 19 C-24.60551385 19.53766045 -26.20982251 20.07894293 -27.8125 20.625 C-43.32072344 25.75721783 -60.72451196 28.07829143 -76 21 C-80.31398651 18.56848033 -83.74076095 15.73853891 -87 12 C-87 11.01 -87 10.02 -87 9 C-86.02740234 9.2165625 -86.02740234 9.2165625 -85.03515625 9.4375 C-64.64890757 13.29508188 -42.81061087 11.8983854 -23 6 C-21.46442167 5.57364072 -19.9278747 5.150762 -18.390625 4.73046875 C-17.57505127 4.50721924 -16.75947754 4.28396973 -15.91918945 4.05395508 C-14.28499806 3.60686346 -12.65072281 3.16007821 -11.01635742 2.71362305 C-1.20150689 0 -1.20150689 0 0 0 Z " fill="#2DA654" transform="translate(160,394)"/>
<path d="M0 0 C4.78011529 2.52534393 8.69642598 5.74106496 10.75 10.875 C11.54043682 17.59371295 11.05825183 22.50469015 7 28 C3.02592446 31.87121711 -0.99556501 33.34394997 -6.5 33.6875 C-12.3915762 33.40110393 -16.00962026 31.25444899 -20 27 C-23.35524134 22.28169187 -23.86368213 17.62374841 -23 12 C-21.08485842 6.28877421 -17.15383022 2.89379794 -12 0 C-7.80628719 -1.39790427 -4.28383365 -0.94625778 0 0 Z " fill="#A07348" transform="translate(305,121)"/>
<path d="M0 0 C6.87157613 -0.27792017 12.60218102 0.56768952 19.1875 2.5 C20.10732666 2.76989746 21.02715332 3.03979492 21.97485352 3.31787109 C41.83263351 9.45013978 59.44562628 23.41887992 69.24243164 41.84301758 C72.73863709 48.68626343 75.51015071 55.42231826 77 63 C77.226875 64.134375 77.45375 65.26875 77.6875 66.4375 C78.14263285 71.62601444 78.07691642 76.7953221 78 82 C77.34 81.67 76.68 81.34 76 81 C76.185625 79.2365625 76.185625 79.2365625 76.375 77.4375 C76.375 61.04975324 63.84579493 45.966977 53 35 C45.3088473 27.41071687 36.95050482 22.0590543 27.0078125 17.8671875 C25 17 25 17 22.125 15.4375 C17.58507434 13.3491342 12.83642237 12.21340846 8 11 C7.67 11.66 7.34 12.32 7 13 C6.74605469 12.48050781 6.49210937 11.96101563 6.23046875 11.42578125 C4.29956111 7.51334292 2.31511537 3.7041846 0 0 Z " fill="#F292BB" transform="translate(332,94)"/>
<path d="M0 0 C0.58265625 0.43957031 1.1653125 0.87914063 1.765625 1.33203125 C1.765625 1.99203125 1.765625 2.65203125 1.765625 3.33203125 C0.37555985 3.86806944 -1.02180149 4.38520598 -2.421875 4.89453125 C-3.19917969 5.18457031 -3.97648437 5.47460938 -4.77734375 5.7734375 C-7.234375 6.33203125 -7.234375 6.33203125 -9.31445312 5.87573242 C-13.35595347 5.12318884 -17.308112 5.19638745 -21.41015625 5.19140625 C-23.225924 5.17307843 -25.04167956 5.15350814 -26.85742188 5.1328125 C-29.70130082 5.10388089 -32.54439213 5.08203168 -35.38842773 5.08154297 C-38.14637029 5.07819159 -40.90252629 5.04355036 -43.66015625 5.00390625 C-44.91993034 5.0145108 -44.91993034 5.0145108 -46.20515442 5.02532959 C-52.20084732 4.90293096 -56.72845007 3.42351657 -61.234375 -0.66796875 C-62.45478821 -2.83721924 -62.45478821 -2.83721924 -63.234375 -4.66796875 C-44.92400636 -21.86524507 -19.06472071 -11.36089489 0 0 Z " fill="#EF77AC" transform="translate(259.234375,73.66796875)"/>
<path d="M0 0 C1.2684375 0.433125 1.2684375 0.433125 2.5625 0.875 C15.17273797 5.00198697 27.1207465 5.05609405 40 2 C39.46422662 9.1436451 35.90582625 14.521265 30.6875 19.25 C27.09167179 22.12666257 23.25276012 24.25120145 19 26 C18.12214844 26.36351562 17.24429687 26.72703125 16.33984375 27.1015625 C12.02648496 28.26188124 8.06593201 28.21707674 3.625 28.125 C2.79355469 28.11597656 1.96210938 28.10695312 1.10546875 28.09765625 C-0.92981337 28.0742622 -2.96494564 28.03839725 -5 28 C-4.83564453 27.10474609 -4.83564453 27.10474609 -4.66796875 26.19140625 C-3.07358834 17.46768256 -1.5359023 8.73416442 0 0 Z " fill="#EF78AC" transform="translate(347,175)"/>
<path d="M0 0 C0.03738281 1.05316406 0.07476562 2.10632813 0.11328125 3.19140625 C0.58384764 20.91007903 0.58384764 20.91007903 7 37 C7.70382813 36.34515625 8.40765625 35.6903125 9.1328125 35.015625 C14.89686433 29.67832045 20.73239041 24.4362695 26.6875 19.3125 C27.29932129 18.78366211 27.91114258 18.25482422 28.54150391 17.70996094 C32.87799773 14 32.87799773 14 34 14 C34 21.59 34 29.18 34 37 C31.3084375 37.12375 31.3084375 37.12375 28.5625 37.25 C22.62194248 37.75260886 18.18403068 39.12539652 13 42 C12.33484375 42.34933594 11.6696875 42.69867188 10.984375 43.05859375 C3.40999324 47.36764164 -2.61348202 53.51789126 -7 61 C-7.33 61 -7.66 61 -8 61 C-8.25154158 54.71146041 -7.48866738 48.77797994 -6.53515625 42.5625 C-5.08133448 32.88450398 -4.46929466 23.21892504 -3.95043945 13.45336914 C-3.84148098 11.42806511 -3.71978473 9.4034588 -3.59765625 7.37890625 C-3.53070557 6.1782251 -3.46375488 4.97754395 -3.39477539 3.74047852 C-3.26449951 2.83612061 -3.13422363 1.9317627 -3 1 C-1 0 -1 0 0 0 Z " fill="#2CA654" transform="translate(205,164)"/>
<path d="M0 0 C3.16106998 0.42075676 5.55921042 1.70672531 8.2890625 3.3046875 C8.9490625 3.3046875 9.6090625 3.3046875 10.2890625 3.3046875 C11.68512444 7.49287333 11.24530781 11.02713215 10.2890625 15.3046875 C8.23860769 19.06385466 6.85009226 20.93066766 3.2890625 23.3046875 C-0.83712289 24.04328179 -4.90843766 24.2360381 -8.69921875 22.27734375 C-11.20863481 20.11529316 -12.49354444 18.34598198 -13.17578125 15.078125 C-13.41261381 9.41309012 -11.98294924 6.04173088 -8.375 1.6953125 C-5.72132992 -0.5223085 -3.33102681 -0.09765225 0 0 Z " fill="#AF8966" transform="translate(303.7109375,124.6953125)"/>
<path d="M0 0 C-0.81404297 0.79664062 -0.81404297 0.79664062 -1.64453125 1.609375 C-2.35996094 2.31578125 -3.07539063 3.0221875 -3.8125 3.75 C-4.87404297 4.79414062 -4.87404297 4.79414062 -5.95703125 5.859375 C-8.01922454 7.87521373 -8.01922454 7.87521373 -9.2890625 10.06640625 C-11.83107828 12.93923231 -15.03606982 13.9347428 -18.5625 15.1875 C-19.27905762 15.44724609 -19.99561523 15.70699219 -20.73388672 15.97460938 C-27.46662859 18.32144216 -33.49710026 19.79890696 -40.5625 18.1875 C-43 17 -43 17 -44 15 C-44.039992 13.00039988 -44.04346799 10.99952758 -44 9 C-43.319375 9.165 -42.63875 9.33 -41.9375 9.5 C-34.26081807 10.80666926 -29.03452306 9.1740155 -22.0625 6.1875 C-20.34535991 5.47191713 -18.62791554 4.75706395 -16.91015625 4.04296875 C-13.31594478 2.54813656 -13.31594478 2.54813656 -9.72998047 1.03369141 C-6.01256308 -0.4785805 -3.82872879 -1.23794686 0 0 Z " fill="#E46CA7" transform="translate(234,93)"/>
<path d="M0 0 C-0.82564453 0.4021875 -0.82564453 0.4021875 -1.66796875 0.8125 C-12.25889955 6.20553679 -19.80563485 12.22490635 -23.9375 23.6875 C-26.45563493 33.55796718 -25.57400648 44.2325647 -23 54 C-29.57995666 47.77571667 -32.04619931 43.1057245 -32.34399414 34.11108398 C-32.47501534 24.6620827 -31.53295636 18.02395357 -24.98046875 10.76171875 C-20.15682414 6.14081927 -15.21832191 3.32694076 -9 1 C-6.04335481 -0.4783226 -3.25770263 -0.06032783 0 0 Z " fill="#E5E5E4" transform="translate(292,103)"/>
<path d="M0 0 C1.43229167 1.23697917 2.86458333 2.47395833 4.296875 3.7109375 C7.4835951 6.12290455 10.13318545 7.24436968 14.13842773 7.30297852 C14.94283798 7.31962051 15.74724823 7.33626251 16.57603455 7.35340881 C17.43652908 7.36182297 18.29702362 7.37023712 19.18359375 7.37890625 C20.07611343 7.39590073 20.96863312 7.4128952 21.88819885 7.43040466 C24.73789411 7.48346938 27.58757656 7.52378279 30.4375 7.5625 C33.28377708 7.6065332 36.12994571 7.65335323 38.97608948 7.70530701 C40.74564964 7.73707031 42.51530452 7.76401926 44.28501892 7.78553772 C48.31106812 7.85279042 52.07091823 8.00710028 56 9 C56 9.66 56 10.32 56 11 C49.79075256 14.64173119 45.58252525 15.52656323 38.4609375 15.05859375 C37.13420517 14.99418846 37.13420517 14.99418846 35.78067017 14.92848206 C33.92287567 14.83349576 32.06559797 14.72785665 30.20898438 14.61206055 C27.37706172 14.43762699 24.54515363 14.30122648 21.7109375 14.16992188 C19.89831576 14.07255294 18.08580884 13.97301728 16.2734375 13.87109375 C15.0122963 13.80987587 15.0122963 13.80987587 13.72567749 13.74742126 C8.84796439 13.42375092 5.21465697 12.70399391 1 10 C-1.29404844 6.55892734 -1.26293056 5.03160191 -1 1 C-0.67 0.67 -0.34 0.34 0 0 Z " fill="#E46DA8" transform="translate(196,70)"/>
<path d="M0 0 C-1.4554445 3.70258683 -3.21816175 5.08484622 -6.625 7.0625 C-7.85089844 7.79146484 -7.85089844 7.79146484 -9.1015625 8.53515625 C-16.10009877 12.07215234 -21.63345719 13.4373332 -29.5 13.1875 C-30.73363281 13.16719727 -30.73363281 13.16719727 -31.9921875 13.14648438 C-33.99508221 13.11155016 -35.99763356 13.05776057 -38 13 C-37.125 6.125 -37.125 6.125 -36 5 C-34.5454291 4.86700104 -33.08501299 4.79665308 -31.625 4.75390625 C-30.72136719 4.72103516 -29.81773437 4.68816406 -28.88671875 4.65429688 C-26.99357987 4.59409557 -25.10034904 4.53670581 -23.20703125 4.48242188 C-15.29304686 4.18662415 -7.05962888 0 0 0 Z " fill="#E46EA8" transform="translate(380,190)"/>
<path d="M0 0 C1 3 1 3 -0.109375 5.671875 C-0.65078125 6.68765625 -1.1921875 7.7034375 -1.75 8.75 C-3.51769616 12.11105531 -5.20737117 15.36700695 -6.5 18.9375 C-8.43944353 22.89719721 -10.41476862 24.4604611 -14 27 C-17.55353929 28.1845131 -20.27013478 28.26641894 -24 28 C-25.9375 26.75 -25.9375 26.75 -27 25 C-27 23.68 -27 22.36 -27 21 C-25.783125 20.71125 -24.56625 20.4225 -23.3125 20.125 C-18.52170334 18.93508416 -18.52170334 18.93508416 -14 17 C-12.94978897 15.15028304 -12.94978897 15.15028304 -12 13 C-10.35697047 11.31002677 -8.68528688 9.64783606 -7 8 C-4.63268418 5.36255478 -2.31242917 2.68561658 0 0 Z " fill="#E36DA7" transform="translate(214,116)"/>
<path d="M0 0 C2.37271216 1.41232867 4.71753176 2.85304243 7.0390625 4.34765625 C4.0390625 5.34765625 4.0390625 5.34765625 1.7265625 4.2734375 C0.8396875 3.74105469 -0.0471875 3.20867187 -0.9609375 2.66015625 C-6.46606357 -0.47006715 -11.92100667 -2.76882709 -17.9609375 -4.65234375 C-18.68667969 -4.87921875 -19.41242188 -5.10609375 -20.16015625 -5.33984375 C-31.87677385 -8.45849982 -43.22743934 -7.30155331 -53.9609375 -1.65234375 C-54.2909375 -0.99234375 -54.6209375 -0.33234375 -54.9609375 0.34765625 C-55.9509375 0.01765625 -56.9409375 -0.31234375 -57.9609375 -0.65234375 C-44.76444711 -19.38284624 -16.44642342 -9.17788536 0 0 Z " fill="#F293BC" transform="translate(253.9609375,70.65234375)"/>
<path d="M0 0 C4.99184736 -0.29363808 7.97444744 -0.07836372 12 3 C13.59435019 6.18870039 13.38632834 9.5297058 13 13 C11.6038245 15.91927604 10.27797004 17.72202996 8 20 C5.94140625 20.30078125 5.94140625 20.30078125 3.5625 20.3125 C2.38880859 20.33763672 2.38880859 20.33763672 1.19140625 20.36328125 C-1.49050614 19.91868615 -2.37747608 19.1442358 -4 17 C-4 16.34 -4 15.68 -4 15 C-3.39671875 15.11859375 -2.7934375 15.2371875 -2.171875 15.359375 C2.95208182 16.328621 2.95208182 16.328621 7.5 14.25 C9.14983074 11.98903677 9.14983074 11.98903677 10 9 C9.21625 9.20625 8.4325 9.4125 7.625 9.625 C6.75875 9.74875 5.8925 9.8725 5 10 C4.34 9.34 3.68 8.68 3 8 C3.375 4.875 3.375 4.875 4 2 C2.35 2 0.7 2 -1 2 C-0.67 1.34 -0.34 0.68 0 0 Z " fill="#AE9278" transform="translate(299,127)"/>
<path d="M0 0 C0.66 1.98 1.32 3.96 2 6 C3.65 6 5.3 6 7 6 C6.67694236 8.98828314 6.34810879 10.61321245 4.3125 12.875 C1.126615 14.42489 -0.64768852 13.99856087 -4 13 C-5.875 11.875 -5.875 11.875 -7 10 C-7.6431853 3.99693721 -7.6431853 3.99693721 -5.75 1.0625 C-4 0 -4 0 0 0 Z " fill="#292929" transform="translate(302,130)"/>
<path d="M0 0 C2.64 0.33 5.28 0.66 8 1 C4.28405845 3.47729437 0.3144273 5.30075412 -3.73046875 7.16992188 C-7.94328513 9.2041619 -10.86800324 11.54517536 -14 15 C-15.6875 16.8125 -15.6875 16.8125 -17 18 C-17.66 18 -18.32 18 -19 18 C-19 19.98 -19 21.96 -19 24 C-19.33 24 -19.66 24 -20 24 C-20.46229687 18.22128913 -19.71404687 15.45685624 -16 11 C-6.77310924 2 -6.77310924 2 0 2 C0 1.34 0 0.68 0 0 Z " fill="#F298BF" transform="translate(209,83)"/>
<path d="M0 0 C1.32 0 2.64 0 4 0 C4 0.66 4 1.32 4 2 C4.99 2.33 5.98 2.66 7 3 C6.52949219 3.59167969 6.05898437 4.18335937 5.57421875 4.79296875 C-0.45777455 12.44847992 -3.6564863 18.50960055 -6 28 C-6.33 28 -6.66 28 -7 28 C-8.20603715 14.54215689 -8.20603715 14.54215689 -3.6875 8.875 C-2.47461448 7.56803321 -1.24604357 6.27539363 0 5 C1.01829394 3.68058527 2.02418241 2.35113205 3 1 C2.01 0.67 1.02 0.34 0 0 Z " fill="#F297BE" transform="translate(193,111)"/>
<path d="M0 0 C3.1875 1.4375 3.1875 1.4375 5 3 C5 3.33 5 3.66 5 4 C-2.65083958 5.24911667 -10.27440986 5.09053426 -18 5 C-12.84977552 -0.66524693 -7.32189415 -0.7365219 0 0 Z " fill="#64B65B" transform="translate(235,385)"/>
<path d="M0 0 C6.0777453 0.27012201 10.15606163 0.9830755 15 5 C15.99 6.485 15.99 6.485 17 8 C14 8 14 8 12.109375 7.0390625 C9.74088544 5.87236209 7.86934513 5.60611869 5.25 5.375 C4.05117188 5.26285156 4.05117188 5.26285156 2.828125 5.1484375 C1.92320312 5.07496094 1.92320312 5.07496094 1 5 C1 4.67 1 4.34 1 4 C2.98 4 4.96 4 7 4 C7 3.34 7 2.68 7 2 C4.36 2 1.72 2 -1 2 C-0.67 1.34 -0.34 0.68 0 0 Z " fill="#A5794E" transform="translate(296,120)"/>
<path d="M0 0 C2.97 0.495 2.97 0.495 6 1 C7.54368944 5.63106831 7.1425594 10.43315423 5.14453125 14.921875 C4.125 16.5625 4.125 16.5625 2 19 C1.01 19 0.02 19 -1 19 C-0.525625 18.566875 -0.05125 18.13375 0.4375 17.6875 C3.33830257 14.55463322 3.26477467 11.12696835 3.234375 7.0078125 C2.90258452 4.16547403 1.69522626 2.26030168 0 0 Z " fill="#AB835D" transform="translate(308,127)"/>
<path d="M0 0 C2.625 0.375 2.625 0.375 5 1 C5.125 3.375 5.125 3.375 5 6 C4.34 6.66 3.68 7.32 3 8 C0.875 7.625 0.875 7.625 -1 7 C-1.625 4.625 -1.625 4.625 -2 2 C-1.34 1.34 -0.68 0.68 0 0 Z " fill="#F1F0EE" transform="translate(304,129)"/>
<path d="M0 0 C0.33 0 0.66 0 1 0 C1.33 1.98 1.66 3.96 2 6 C2.33 4.35 2.66 2.7 3 1 C3.33 1 3.66 1 4 1 C4.66 3.64 5.32 6.28 6 9 C5.34 9 4.68 9 4 9 C4.8955794 11.12143733 4.8955794 11.12143733 7 13 C9.9858081 13.66174825 12.94861869 13.87205948 16 14 C16 14.33 16 14.66 16 15 C7.73109433 15.88245238 7.73109433 15.88245238 4 13.98046875 C1.4111076 11.7214112 0.15537137 10.03862381 -0.359375 6.59765625 C-0.37349515 4.36314181 -0.26607993 2.21733276 0 0 Z " fill="#A98869" transform="translate(291,133)"/>
<path d="M0 0 C4.99184736 -0.29363808 7.97444744 -0.07836372 12 3 C13.60725635 6.21451269 13.05748185 9.43612536 13 13 C12.34 13 11.68 13 11 13 C10.34 9.7 9.68 6.4 9 3 C5.7 2.67 2.4 2.34 -1 2 C-0.67 1.34 -0.34 0.68 0 0 Z " fill="#BC9D80" transform="translate(299,127)"/>
<path d="M0 0 C0.66 0.33 1.32 0.66 2 1 C3.39081535 7.25866905 3.09429082 13.61965445 3 20 C2.34 19.67 1.68 19.34 1 19 C1.02320313 18.40832031 1.04640625 17.81664062 1.0703125 17.20703125 C1.17732579 12.52137774 0.8150185 9.35604439 -1 5 C-0.625 2.1875 -0.625 2.1875 0 0 Z " fill="#F4A8C8" transform="translate(407,156)"/>
<path d="M0 0 C1.60080151 4.00200378 0.29279692 7.04556236 -1 11 C-1.33 11 -1.66 11 -2 11 C-2.05399736 9.54207116 -2.09279177 8.08357288 -2.125 6.625 C-2.15980469 5.40683594 -2.15980469 5.40683594 -2.1953125 4.1640625 C-2 2 -2 2 0 0 Z " fill="#BB9B7C" transform="translate(294,130)"/>
<path d="M0 0 C1.98 0.66 3.96 1.32 6 2 C5.67 2.66 5.34 3.32 5 4 C3.34385343 4.38218767 1.67542976 4.71395102 0 5 C-0.99 5.495 -0.99 5.495 -2 6 C-1.125 1.125 -1.125 1.125 0 0 Z " fill="#A08872" transform="translate(297,127)"/>
<path d="M0 0 C2.64 0.33 5.28 0.66 8 1 C5.01353231 2.99097846 2.40312738 3.94124926 -1 5 C-0.67 3.35 -0.34 1.7 0 0 Z " fill="#F08EB9" transform="translate(209,83)"/>
</svg>


