<svg viewBox="0 0 24 24" xmlns="http://www.w3.org/2000/svg" fill="#4680C2">
<path d="M15.684 0H8.316C1.592 0 0 1.592 0 8.316v7.368C0 22.408 1.592 24 8.316 24h7.368C22.408 24 24 22.408 24 15.684V8.316C24 1.592 22.408 0 15.684 0zm3.692 17.123h-1.744c-.66 0-.862-.523-2.049-1.712-1.033-1.033-1.49-1.172-1.744-1.172-.356 0-.458.102-.458.594v1.561c0 .424-.135.678-1.253.678-1.846 0-3.896-1.118-5.335-3.202C4.624 10.857 4 8.684 4 8.198c0-.254.102-.491.594-.491h1.744c.44 0 .61.203.78.677.863 2.49 2.303 4.675 2.896 4.675.22 0 .322-.102.322-.66V9.721c-.068-1.186-.695-1.287-.695-1.71 0-.204.17-.407.44-.407h2.744c.373 0 .508.203.508.643v3.473c0 .372.17.508.271.508.22 0 .407-.136.814-.542 1.27-1.422 2.168-3.608 2.168-3.608.118-.254.322-.491.762-.491h1.744c.525 0 .643.27.525.643-.22 1.017-2.354 4.031-2.354 4.031-.186.305-.254.44 0 .78.186.254.796.779 1.203 1.253.745.847 1.32 1.558 1.473 2.049.17.474-.085.716-.576.716z"/>
</svg>


